<svg width="157" height="24" viewBox="0 0 157 24" fill="none" xmlns="http://www.w3.org/2000/svg">
<path d="M12 22C17.5228 22 22 17.5228 22 12C22 6.47715 17.5228 2 12 2C6.47715 2 2 6.47715 2 12C2 17.5228 6.47715 22 12 22Z" stroke="black" stroke-linecap="round" stroke-linejoin="round"/>
<path d="M12 6V12L16 14" stroke="black" stroke-linecap="round" stroke-linejoin="round"/>
<path d="M44.8398 7.92871L41.5449 17H40.1982L43.9922 7.04688H44.8604L44.8398 7.92871ZM47.6016 17L44.2998 7.92871L44.2793 7.04688H45.1475L48.9551 17H47.6016ZM47.4307 13.3154V14.3955H41.8389V13.3154H47.4307ZM54.4033 15.0381C54.4033 14.8558 54.3623 14.6872 54.2803 14.5322C54.2028 14.3727 54.041 14.2292 53.7949 14.1016C53.5534 13.9694 53.1888 13.8555 52.7012 13.7598C52.291 13.6732 51.9196 13.5706 51.5869 13.4521C51.2588 13.3337 50.9785 13.1901 50.7461 13.0215C50.5182 12.8529 50.3428 12.6546 50.2197 12.4268C50.0967 12.1989 50.0352 11.9323 50.0352 11.627C50.0352 11.3353 50.099 11.0596 50.2266 10.7998C50.3587 10.54 50.5433 10.3099 50.7803 10.1094C51.0218 9.90885 51.3112 9.75163 51.6484 9.6377C51.9857 9.52376 52.3617 9.4668 52.7764 9.4668C53.3688 9.4668 53.8747 9.57161 54.2939 9.78125C54.7132 9.99089 55.0345 10.2712 55.2578 10.6221C55.4811 10.9684 55.5928 11.3535 55.5928 11.7773H54.3281C54.3281 11.5723 54.2666 11.374 54.1436 11.1826C54.0251 10.9867 53.8496 10.8249 53.6172 10.6973C53.3893 10.5697 53.109 10.5059 52.7764 10.5059C52.4255 10.5059 52.1406 10.5605 51.9219 10.6699C51.7077 10.7747 51.5505 10.9092 51.4502 11.0732C51.3545 11.2373 51.3066 11.4105 51.3066 11.5928C51.3066 11.7295 51.3294 11.8525 51.375 11.9619C51.4251 12.0667 51.5117 12.1647 51.6348 12.2559C51.7578 12.3424 51.931 12.4245 52.1543 12.502C52.3776 12.5794 52.6624 12.6569 53.0088 12.7344C53.6149 12.8711 54.1139 13.0352 54.5059 13.2266C54.8978 13.418 55.1895 13.6527 55.3809 13.9307C55.5723 14.2087 55.668 14.5459 55.668 14.9424C55.668 15.266 55.5996 15.5622 55.4629 15.8311C55.3307 16.0999 55.137 16.3324 54.8818 16.5283C54.6312 16.7197 54.3304 16.8701 53.9795 16.9795C53.6331 17.0843 53.2435 17.1367 52.8105 17.1367C52.1589 17.1367 51.6074 17.0205 51.1562 16.7881C50.7051 16.5557 50.3633 16.2549 50.1309 15.8857C49.8984 15.5166 49.7822 15.127 49.7822 14.7168H51.0537C51.0719 15.0632 51.1722 15.3389 51.3545 15.5439C51.5368 15.7445 51.7601 15.888 52.0244 15.9746C52.2887 16.0566 52.5508 16.0977 52.8105 16.0977C53.1569 16.0977 53.4463 16.0521 53.6787 15.9609C53.9157 15.8698 54.0957 15.7445 54.2188 15.585C54.3418 15.4255 54.4033 15.2432 54.4033 15.0381ZM61.6357 15.0381C61.6357 14.8558 61.5947 14.6872 61.5127 14.5322C61.4352 14.3727 61.2734 14.2292 61.0273 14.1016C60.7858 13.9694 60.4212 13.8555 59.9336 13.7598C59.5234 13.6732 59.152 13.5706 58.8193 13.4521C58.4912 13.3337 58.2109 13.1901 57.9785 13.0215C57.7507 12.8529 57.5752 12.6546 57.4521 12.4268C57.3291 12.1989 57.2676 11.9323 57.2676 11.627C57.2676 11.3353 57.3314 11.0596 57.459 10.7998C57.5911 10.54 57.7757 10.3099 58.0127 10.1094C58.2542 9.90885 58.5436 9.75163 58.8809 9.6377C59.2181 9.52376 59.5941 9.4668 60.0088 9.4668C60.6012 9.4668 61.1071 9.57161 61.5264 9.78125C61.9456 9.99089 62.2669 10.2712 62.4902 10.6221C62.7135 10.9684 62.8252 11.3535 62.8252 11.7773H61.5605C61.5605 11.5723 61.499 11.374 61.376 11.1826C61.2575 10.9867 61.082 10.8249 60.8496 10.6973C60.6217 10.5697 60.3415 10.5059 60.0088 10.5059C59.6579 10.5059 59.373 10.5605 59.1543 10.6699C58.9401 10.7747 58.7829 10.9092 58.6826 11.0732C58.5869 11.2373 58.5391 11.4105 58.5391 11.5928C58.5391 11.7295 58.5618 11.8525 58.6074 11.9619C58.6576 12.0667 58.7441 12.1647 58.8672 12.2559C58.9902 12.3424 59.1634 12.4245 59.3867 12.502C59.61 12.5794 59.8949 12.6569 60.2412 12.7344C60.8473 12.8711 61.3464 13.0352 61.7383 13.2266C62.1302 13.418 62.4219 13.6527 62.6133 13.9307C62.8047 14.2087 62.9004 14.5459 62.9004 14.9424C62.9004 15.266 62.832 15.5622 62.6953 15.8311C62.5632 16.0999 62.3695 16.3324 62.1143 16.5283C61.8636 16.7197 61.5628 16.8701 61.2119 16.9795C60.8656 17.0843 60.4759 17.1367 60.043 17.1367C59.3913 17.1367 58.8398 17.0205 58.3887 16.7881C57.9375 16.5557 57.5957 16.2549 57.3633 15.8857C57.1309 15.5166 57.0146 15.127 57.0146 14.7168H58.2861C58.3044 15.0632 58.4046 15.3389 58.5869 15.5439C58.7692 15.7445 58.9925 15.888 59.2568 15.9746C59.5212 16.0566 59.7832 16.0977 60.043 16.0977C60.3893 16.0977 60.6787 16.0521 60.9111 15.9609C61.1481 15.8698 61.3281 15.7445 61.4512 15.585C61.5742 15.4255 61.6357 15.2432 61.6357 15.0381ZM65.9355 9.60352V17H64.6641V9.60352H65.9355ZM64.5684 7.6416C64.5684 7.43652 64.6299 7.26335 64.7529 7.12207C64.8805 6.98079 65.0674 6.91016 65.3135 6.91016C65.555 6.91016 65.7396 6.98079 65.8672 7.12207C65.9993 7.26335 66.0654 7.43652 66.0654 7.6416C66.0654 7.83757 65.9993 8.00618 65.8672 8.14746C65.7396 8.28418 65.555 8.35254 65.3135 8.35254C65.0674 8.35254 64.8805 8.28418 64.7529 8.14746C64.6299 8.00618 64.5684 7.83757 64.5684 7.6416ZM72.2725 15.0381C72.2725 14.8558 72.2314 14.6872 72.1494 14.5322C72.0719 14.3727 71.9102 14.2292 71.6641 14.1016C71.4225 13.9694 71.0579 13.8555 70.5703 13.7598C70.1602 13.6732 69.7887 13.5706 69.4561 13.4521C69.1279 13.3337 68.8477 13.1901 68.6152 13.0215C68.3874 12.8529 68.2119 12.6546 68.0889 12.4268C67.9658 12.1989 67.9043 11.9323 67.9043 11.627C67.9043 11.3353 67.9681 11.0596 68.0957 10.7998C68.2279 10.54 68.4124 10.3099 68.6494 10.1094C68.891 9.90885 69.1803 9.75163 69.5176 9.6377C69.8548 9.52376 70.2308 9.4668 70.6455 9.4668C71.238 9.4668 71.7438 9.57161 72.1631 9.78125C72.5824 9.99089 72.9036 10.2712 73.127 10.6221C73.3503 10.9684 73.4619 11.3535 73.4619 11.7773H72.1973C72.1973 11.5723 72.1357 11.374 72.0127 11.1826C71.8942 10.9867 71.7188 10.8249 71.4863 10.6973C71.2585 10.5697 70.9782 10.5059 70.6455 10.5059C70.2946 10.5059 70.0098 10.5605 69.791 10.6699C69.5768 10.7747 69.4196 10.9092 69.3193 11.0732C69.2236 11.2373 69.1758 11.4105 69.1758 11.5928C69.1758 11.7295 69.1986 11.8525 69.2441 11.9619C69.2943 12.0667 69.3809 12.1647 69.5039 12.2559C69.627 12.3424 69.8001 12.4245 70.0234 12.502C70.2467 12.5794 70.5316 12.6569 70.8779 12.7344C71.484 12.8711 71.9831 13.0352 72.375 13.2266C72.7669 13.418 73.0586 13.6527 73.25 13.9307C73.4414 14.2087 73.5371 14.5459 73.5371 14.9424C73.5371 15.266 73.4688 15.5622 73.332 15.8311C73.1999 16.0999 73.0062 16.3324 72.751 16.5283C72.5003 16.7197 72.1995 16.8701 71.8486 16.9795C71.5023 17.0843 71.1126 17.1367 70.6797 17.1367C70.028 17.1367 69.4766 17.0205 69.0254 16.7881C68.5742 16.5557 68.2324 16.2549 68 15.8857C67.7676 15.5166 67.6514 15.127 67.6514 14.7168H68.9229C68.9411 15.0632 69.0413 15.3389 69.2236 15.5439C69.4059 15.7445 69.6292 15.888 69.8936 15.9746C70.1579 16.0566 70.4199 16.0977 70.6797 16.0977C71.026 16.0977 71.3154 16.0521 71.5479 15.9609C71.7848 15.8698 71.9648 15.7445 72.0879 15.585C72.2109 15.4255 72.2725 15.2432 72.2725 15.0381ZM78.2949 9.60352V10.5742H74.2959V9.60352H78.2949ZM75.6494 7.80566H76.9141V15.168C76.9141 15.4186 76.9528 15.6077 77.0303 15.7354C77.1077 15.863 77.208 15.9473 77.3311 15.9883C77.4541 16.0293 77.5863 16.0498 77.7275 16.0498C77.8324 16.0498 77.9417 16.0407 78.0557 16.0225C78.1742 15.9997 78.263 15.9814 78.3223 15.9678L78.3291 17C78.2288 17.0319 78.0967 17.0615 77.9326 17.0889C77.7731 17.1208 77.5794 17.1367 77.3516 17.1367C77.0417 17.1367 76.7568 17.0752 76.4971 16.9521C76.2373 16.8291 76.0299 16.624 75.875 16.3369C75.7246 16.0452 75.6494 15.6533 75.6494 15.1611V7.80566ZM81.1523 9.60352V17H79.8809V9.60352H81.1523ZM79.7852 7.6416C79.7852 7.43652 79.8467 7.26335 79.9697 7.12207C80.0973 6.98079 80.2842 6.91016 80.5303 6.91016C80.7718 6.91016 80.9564 6.98079 81.084 7.12207C81.2161 7.26335 81.2822 7.43652 81.2822 7.6416C81.2822 7.83757 81.2161 8.00618 81.084 8.14746C80.9564 8.28418 80.7718 8.35254 80.5303 8.35254C80.2842 8.35254 80.0973 8.28418 79.9697 8.14746C79.8467 8.00618 79.7852 7.83757 79.7852 7.6416ZM84.4473 10.7656V17H83.1826V9.60352H84.4131L84.4473 10.7656ZM86.7578 9.5625L86.751 10.7383C86.6462 10.7155 86.5459 10.7018 86.4502 10.6973C86.359 10.6882 86.2542 10.6836 86.1357 10.6836C85.8441 10.6836 85.5866 10.7292 85.3633 10.8203C85.14 10.9115 84.9508 11.0391 84.7959 11.2031C84.641 11.3672 84.5179 11.5632 84.4268 11.791C84.3402 12.0143 84.2832 12.2604 84.2559 12.5293L83.9004 12.7344C83.9004 12.2878 83.9437 11.8685 84.0303 11.4766C84.1214 11.0846 84.2604 10.7383 84.4473 10.4375C84.6341 10.1322 84.8711 9.89518 85.1582 9.72656C85.4499 9.55339 85.7962 9.4668 86.1973 9.4668C86.2884 9.4668 86.3932 9.47819 86.5117 9.50098C86.6302 9.51921 86.7122 9.53971 86.7578 9.5625ZM92.6572 11.0732V17H91.3857V9.60352H92.5889L92.6572 11.0732ZM92.3975 13.0215L91.8096 13.001C91.8141 12.4951 91.8802 12.028 92.0078 11.5996C92.1354 11.1667 92.3245 10.7907 92.5752 10.4717C92.8258 10.1527 93.138 9.90658 93.5117 9.7334C93.8854 9.55566 94.3184 9.4668 94.8105 9.4668C95.1569 9.4668 95.4759 9.51693 95.7676 9.61719C96.0592 9.71289 96.3122 9.86556 96.5264 10.0752C96.7406 10.2848 96.9069 10.5537 97.0254 10.8818C97.1439 11.21 97.2031 11.6064 97.2031 12.0713V17H95.9385V12.1328C95.9385 11.7454 95.8724 11.4355 95.7402 11.2031C95.6126 10.9707 95.4303 10.8021 95.1934 10.6973C94.9564 10.5879 94.6784 10.5332 94.3594 10.5332C93.9857 10.5332 93.6735 10.5993 93.4229 10.7314C93.1722 10.8636 92.9717 11.0459 92.8213 11.2783C92.6709 11.5107 92.5615 11.7773 92.4932 12.0781C92.4294 12.3743 92.3975 12.6888 92.3975 13.0215ZM97.1895 12.3242L96.3418 12.584C96.3464 12.1784 96.4124 11.7887 96.54 11.415C96.6722 11.0413 96.8613 10.7087 97.1074 10.417C97.3581 10.1253 97.6657 9.89518 98.0303 9.72656C98.3949 9.55339 98.8118 9.4668 99.2812 9.4668C99.6777 9.4668 100.029 9.51921 100.334 9.62402C100.644 9.72884 100.904 9.89062 101.113 10.1094C101.327 10.3236 101.489 10.5993 101.599 10.9365C101.708 11.2738 101.763 11.6748 101.763 12.1396V17H100.491V12.126C100.491 11.7113 100.425 11.39 100.293 11.1621C100.165 10.9297 99.9831 10.7679 99.7461 10.6768C99.5137 10.5811 99.2357 10.5332 98.9121 10.5332C98.6341 10.5332 98.388 10.5811 98.1738 10.6768C97.9596 10.7725 97.7796 10.9046 97.6338 11.0732C97.488 11.2373 97.3763 11.4264 97.2988 11.6406C97.2259 11.8548 97.1895 12.0827 97.1895 12.3242ZM108.038 15.7354V11.9277C108.038 11.6361 107.979 11.3831 107.86 11.1689C107.746 10.9502 107.573 10.7816 107.341 10.6631C107.108 10.5446 106.821 10.4854 106.479 10.4854C106.16 10.4854 105.88 10.54 105.639 10.6494C105.402 10.7588 105.215 10.9023 105.078 11.0801C104.946 11.2578 104.88 11.4492 104.88 11.6543H103.615C103.615 11.39 103.684 11.1279 103.82 10.8682C103.957 10.6084 104.153 10.3737 104.408 10.1641C104.668 9.94987 104.978 9.78125 105.338 9.6582C105.702 9.5306 106.108 9.4668 106.555 9.4668C107.092 9.4668 107.566 9.55794 107.977 9.74023C108.391 9.92253 108.715 10.1982 108.947 10.5674C109.184 10.932 109.303 11.39 109.303 11.9414V15.3867C109.303 15.6328 109.323 15.8949 109.364 16.1729C109.41 16.4508 109.476 16.6901 109.562 16.8906V17H108.243C108.179 16.8542 108.129 16.6605 108.093 16.4189C108.056 16.1729 108.038 15.945 108.038 15.7354ZM108.257 12.5156L108.271 13.4043H106.992C106.632 13.4043 106.311 13.4339 106.028 13.4932C105.746 13.5479 105.509 13.6322 105.317 13.7461C105.126 13.86 104.98 14.0036 104.88 14.1768C104.78 14.3454 104.729 14.5436 104.729 14.7715C104.729 15.0039 104.782 15.2158 104.887 15.4072C104.992 15.5986 105.149 15.7513 105.358 15.8652C105.573 15.9746 105.835 16.0293 106.145 16.0293C106.532 16.0293 106.874 15.9473 107.17 15.7832C107.466 15.6191 107.701 15.4186 107.874 15.1816C108.052 14.9447 108.147 14.7145 108.161 14.4912L108.701 15.0996C108.669 15.291 108.583 15.5029 108.441 15.7354C108.3 15.9678 108.111 16.1911 107.874 16.4053C107.642 16.6149 107.364 16.7904 107.04 16.9316C106.721 17.0684 106.361 17.1367 105.96 17.1367C105.459 17.1367 105.019 17.0387 104.641 16.8428C104.267 16.6468 103.975 16.3848 103.766 16.0566C103.561 15.724 103.458 15.3525 103.458 14.9424C103.458 14.5459 103.535 14.1973 103.69 13.8965C103.845 13.5911 104.069 13.3382 104.36 13.1377C104.652 12.9326 105.003 12.7777 105.413 12.6729C105.823 12.568 106.281 12.5156 106.787 12.5156H108.257ZM112.666 9.60352V17H111.395V9.60352H112.666ZM111.299 7.6416C111.299 7.43652 111.36 7.26335 111.483 7.12207C111.611 6.98079 111.798 6.91016 112.044 6.91016C112.285 6.91016 112.47 6.98079 112.598 7.12207C112.73 7.26335 112.796 7.43652 112.796 7.6416C112.796 7.83757 112.73 8.00618 112.598 8.14746C112.47 8.28418 112.285 8.35254 112.044 8.35254C111.798 8.35254 111.611 8.28418 111.483 8.14746C111.36 8.00618 111.299 7.83757 111.299 7.6416ZM119.003 15.0381C119.003 14.8558 118.962 14.6872 118.88 14.5322C118.802 14.3727 118.641 14.2292 118.395 14.1016C118.153 13.9694 117.788 13.8555 117.301 13.7598C116.891 13.6732 116.519 13.5706 116.187 13.4521C115.858 13.3337 115.578 13.1901 115.346 13.0215C115.118 12.8529 114.942 12.6546 114.819 12.4268C114.696 12.1989 114.635 11.9323 114.635 11.627C114.635 11.3353 114.699 11.0596 114.826 10.7998C114.958 10.54 115.143 10.3099 115.38 10.1094C115.621 9.90885 115.911 9.75163 116.248 9.6377C116.585 9.52376 116.961 9.4668 117.376 9.4668C117.968 9.4668 118.474 9.57161 118.894 9.78125C119.313 9.99089 119.634 10.2712 119.857 10.6221C120.081 10.9684 120.192 11.3535 120.192 11.7773H118.928C118.928 11.5723 118.866 11.374 118.743 11.1826C118.625 10.9867 118.449 10.8249 118.217 10.6973C117.989 10.5697 117.709 10.5059 117.376 10.5059C117.025 10.5059 116.74 10.5605 116.521 10.6699C116.307 10.7747 116.15 10.9092 116.05 11.0732C115.954 11.2373 115.906 11.4105 115.906 11.5928C115.906 11.7295 115.929 11.8525 115.975 11.9619C116.025 12.0667 116.111 12.1647 116.234 12.2559C116.357 12.3424 116.531 12.4245 116.754 12.502C116.977 12.5794 117.262 12.6569 117.608 12.7344C118.215 12.8711 118.714 13.0352 119.105 13.2266C119.497 13.418 119.789 13.6527 119.98 13.9307C120.172 14.2087 120.268 14.5459 120.268 14.9424C120.268 15.266 120.199 15.5622 120.062 15.8311C119.93 16.0999 119.737 16.3324 119.481 16.5283C119.231 16.7197 118.93 16.8701 118.579 16.9795C118.233 17.0843 117.843 17.1367 117.41 17.1367C116.758 17.1367 116.207 17.0205 115.756 16.7881C115.305 16.5557 114.963 16.2549 114.73 15.8857C114.498 15.5166 114.382 15.127 114.382 14.7168H115.653C115.672 15.0632 115.772 15.3389 115.954 15.5439C116.136 15.7445 116.36 15.888 116.624 15.9746C116.888 16.0566 117.15 16.0977 117.41 16.0977C117.757 16.0977 118.046 16.0521 118.278 15.9609C118.515 15.8698 118.695 15.7445 118.818 15.585C118.941 15.4255 119.003 15.2432 119.003 15.0381ZM128.498 9.60352V10.5742H124.499V9.60352H128.498ZM125.853 7.80566H127.117V15.168C127.117 15.4186 127.156 15.6077 127.233 15.7354C127.311 15.863 127.411 15.9473 127.534 15.9883C127.657 16.0293 127.789 16.0498 127.931 16.0498C128.035 16.0498 128.145 16.0407 128.259 16.0225C128.377 15.9997 128.466 15.9814 128.525 15.9678L128.532 17C128.432 17.0319 128.3 17.0615 128.136 17.0889C127.976 17.1208 127.783 17.1367 127.555 17.1367C127.245 17.1367 126.96 17.0752 126.7 16.9521C126.44 16.8291 126.233 16.624 126.078 16.3369C125.928 16.0452 125.853 15.6533 125.853 15.1611V7.80566ZM134.343 15.7354V11.9277C134.343 11.6361 134.284 11.3831 134.165 11.1689C134.051 10.9502 133.878 10.7816 133.646 10.6631C133.413 10.5446 133.126 10.4854 132.784 10.4854C132.465 10.4854 132.185 10.54 131.943 10.6494C131.706 10.7588 131.52 10.9023 131.383 11.0801C131.251 11.2578 131.185 11.4492 131.185 11.6543H129.92C129.92 11.39 129.988 11.1279 130.125 10.8682C130.262 10.6084 130.458 10.3737 130.713 10.1641C130.973 9.94987 131.283 9.78125 131.643 9.6582C132.007 9.5306 132.413 9.4668 132.859 9.4668C133.397 9.4668 133.871 9.55794 134.281 9.74023C134.696 9.92253 135.02 10.1982 135.252 10.5674C135.489 10.932 135.607 11.39 135.607 11.9414V15.3867C135.607 15.6328 135.628 15.8949 135.669 16.1729C135.715 16.4508 135.781 16.6901 135.867 16.8906V17H134.548C134.484 16.8542 134.434 16.6605 134.397 16.4189C134.361 16.1729 134.343 15.945 134.343 15.7354ZM134.562 12.5156L134.575 13.4043H133.297C132.937 13.4043 132.616 13.4339 132.333 13.4932C132.05 13.5479 131.813 13.6322 131.622 13.7461C131.431 13.86 131.285 14.0036 131.185 14.1768C131.084 14.3454 131.034 14.5436 131.034 14.7715C131.034 15.0039 131.087 15.2158 131.191 15.4072C131.296 15.5986 131.453 15.7513 131.663 15.8652C131.877 15.9746 132.139 16.0293 132.449 16.0293C132.837 16.0293 133.178 15.9473 133.475 15.7832C133.771 15.6191 134.006 15.4186 134.179 15.1816C134.356 14.9447 134.452 14.7145 134.466 14.4912L135.006 15.0996C134.974 15.291 134.887 15.5029 134.746 15.7354C134.605 15.9678 134.416 16.1911 134.179 16.4053C133.946 16.6149 133.668 16.7904 133.345 16.9316C133.026 17.0684 132.666 17.1367 132.265 17.1367C131.763 17.1367 131.324 17.0387 130.945 16.8428C130.572 16.6468 130.28 16.3848 130.07 16.0566C129.865 15.724 129.763 15.3525 129.763 14.9424C129.763 14.5459 129.84 14.1973 129.995 13.8965C130.15 13.5911 130.373 13.3382 130.665 13.1377C130.957 12.9326 131.308 12.7777 131.718 12.6729C132.128 12.568 132.586 12.5156 133.092 12.5156H134.562ZM138.861 10.7656V17H137.597V9.60352H138.827L138.861 10.7656ZM141.172 9.5625L141.165 10.7383C141.06 10.7155 140.96 10.7018 140.864 10.6973C140.773 10.6882 140.668 10.6836 140.55 10.6836C140.258 10.6836 140.001 10.7292 139.777 10.8203C139.554 10.9115 139.365 11.0391 139.21 11.2031C139.055 11.3672 138.932 11.5632 138.841 11.791C138.754 12.0143 138.697 12.2604 138.67 12.5293L138.314 12.7344C138.314 12.2878 138.358 11.8685 138.444 11.4766C138.535 11.0846 138.674 10.7383 138.861 10.4375C139.048 10.1322 139.285 9.89518 139.572 9.72656C139.864 9.55339 140.21 9.4668 140.611 9.4668C140.702 9.4668 140.807 9.47819 140.926 9.50098C141.044 9.51921 141.126 9.53971 141.172 9.5625ZM146.866 15.5645V6.5H148.138V17H146.976L146.866 15.5645ZM141.89 13.3838V13.2402C141.89 12.6751 141.958 12.1624 142.095 11.7021C142.236 11.2373 142.434 10.8385 142.689 10.5059C142.949 10.1732 143.257 9.91797 143.612 9.74023C143.972 9.55794 144.373 9.4668 144.815 9.4668C145.28 9.4668 145.686 9.54883 146.032 9.71289C146.383 9.8724 146.679 10.1071 146.921 10.417C147.167 10.7223 147.361 11.0915 147.502 11.5244C147.643 11.9574 147.741 12.4473 147.796 12.9941V13.623C147.746 14.1654 147.648 14.653 147.502 15.0859C147.361 15.5189 147.167 15.888 146.921 16.1934C146.679 16.4987 146.383 16.7334 146.032 16.8975C145.681 17.057 145.271 17.1367 144.802 17.1367C144.369 17.1367 143.972 17.0433 143.612 16.8564C143.257 16.6696 142.949 16.4076 142.689 16.0703C142.434 15.7331 142.236 15.3366 142.095 14.8809C141.958 14.4206 141.89 13.9215 141.89 13.3838ZM143.161 13.2402V13.3838C143.161 13.7529 143.198 14.0993 143.271 14.4229C143.348 14.7464 143.466 15.0312 143.626 15.2773C143.785 15.5234 143.988 15.7171 144.234 15.8584C144.48 15.9951 144.774 16.0635 145.116 16.0635C145.535 16.0635 145.88 15.9746 146.148 15.7969C146.422 15.6191 146.641 15.3844 146.805 15.0928C146.969 14.8011 147.096 14.4844 147.188 14.1426V12.4951C147.133 12.2445 147.053 12.0029 146.948 11.7705C146.848 11.5335 146.716 11.3239 146.552 11.1416C146.392 10.9548 146.194 10.8066 145.957 10.6973C145.725 10.5879 145.449 10.5332 145.13 10.5332C144.784 10.5332 144.485 10.6061 144.234 10.752C143.988 10.8932 143.785 11.0892 143.626 11.3398C143.466 11.5859 143.348 11.873 143.271 12.2012C143.198 12.5247 143.161 12.8711 143.161 13.2402ZM153.176 17.1367C152.661 17.1367 152.194 17.0501 151.774 16.877C151.36 16.6992 151.002 16.4508 150.701 16.1318C150.405 15.8128 150.177 15.4346 150.018 14.9971C149.858 14.5596 149.778 14.0811 149.778 13.5615V13.2744C149.778 12.6729 149.867 12.1374 150.045 11.668C150.223 11.194 150.464 10.793 150.77 10.4648C151.075 10.1367 151.421 9.88835 151.809 9.71973C152.196 9.55111 152.597 9.4668 153.012 9.4668C153.54 9.4668 153.996 9.55794 154.379 9.74023C154.766 9.92253 155.083 10.1777 155.329 10.5059C155.575 10.8294 155.757 11.2122 155.876 11.6543C155.994 12.0918 156.054 12.5703 156.054 13.0898V13.6572H150.53V12.625H154.789V12.5293C154.771 12.2012 154.702 11.8822 154.584 11.5723C154.47 11.2624 154.288 11.0072 154.037 10.8066C153.786 10.6061 153.445 10.5059 153.012 10.5059C152.725 10.5059 152.46 10.5674 152.219 10.6904C151.977 10.8089 151.77 10.9867 151.597 11.2236C151.424 11.4606 151.289 11.75 151.193 12.0918C151.098 12.4336 151.05 12.8278 151.05 13.2744V13.5615C151.05 13.9124 151.098 14.2428 151.193 14.5527C151.294 14.8581 151.437 15.127 151.624 15.3594C151.815 15.5918 152.046 15.7741 152.314 15.9062C152.588 16.0384 152.898 16.1045 153.244 16.1045C153.691 16.1045 154.069 16.0133 154.379 15.8311C154.689 15.6488 154.96 15.4049 155.192 15.0996L155.958 15.708C155.799 15.9495 155.596 16.1797 155.35 16.3984C155.104 16.6172 154.8 16.7949 154.44 16.9316C154.085 17.0684 153.663 17.1367 153.176 17.1367Z" fill="black"/>
</svg>
