<svg width="105" height="24" viewBox="0 0 105 24" fill="none" xmlns="http://www.w3.org/2000/svg">
<path d="M22.54 6.42C22.4212 5.94541 22.1793 5.51057 21.8387 5.15941C21.498 4.80824 21.0708 4.55318 20.6 4.42C18.88 4 12 4 12 4C12 4 5.12002 4 3.40002 4.46C2.92927 4.59318 2.502 4.84824 2.16137 5.19941C1.82074 5.55057 1.57881 5.98541 1.46002 6.46C1.14524 8.20556 0.991258 9.97631 1.00002 11.75C0.988802 13.537 1.14279 15.3213 1.46002 17.08C1.59098 17.5398 1.83833 17.9581 2.17817 18.2945C2.518 18.6308 2.93884 18.8738 3.40002 19C5.12002 19.46 12 19.46 12 19.46C12 19.46 18.88 19.46 20.6 19C21.0708 18.8668 21.498 18.6118 21.8387 18.2606C22.1793 17.9094 22.4212 17.4746 22.54 17C22.8524 15.2676 23.0063 13.5103 23 11.75C23.0112 9.96295 22.8573 8.1787 22.54 6.42V6.42Z" stroke="black" stroke-linecap="round" stroke-linejoin="round"/>
<path d="M9.75 15.02L15.5 11.75L9.75 8.48001V15.02Z" stroke="black" stroke-linecap="round" stroke-linejoin="round"/>
<path d="M42.5703 7.04688V17H41.251V7.04688H42.5703ZM46.043 11.1826V17H44.7783V9.60352H45.9746L46.043 11.1826ZM45.7422 13.0215L45.2158 13.001C45.2204 12.4951 45.2956 12.028 45.4414 11.5996C45.5872 11.1667 45.7923 10.7907 46.0566 10.4717C46.321 10.1527 46.6354 9.90658 47 9.7334C47.3691 9.55566 47.777 9.4668 48.2236 9.4668C48.5882 9.4668 48.9163 9.51693 49.208 9.61719C49.4997 9.71289 49.748 9.86784 49.9531 10.082C50.1628 10.2962 50.3223 10.5742 50.4316 10.916C50.541 11.2533 50.5957 11.6657 50.5957 12.1533V17H49.3242V12.1396C49.3242 11.7523 49.2673 11.4424 49.1533 11.21C49.0394 10.973 48.873 10.8021 48.6543 10.6973C48.4355 10.5879 48.1667 10.5332 47.8477 10.5332C47.5332 10.5332 47.2461 10.5993 46.9863 10.7314C46.7311 10.8636 46.5101 11.0459 46.3232 11.2783C46.141 11.5107 45.9974 11.7773 45.8926 12.0781C45.7923 12.3743 45.7422 12.6888 45.7422 13.0215ZM56.8232 15.0381C56.8232 14.8558 56.7822 14.6872 56.7002 14.5322C56.6227 14.3727 56.4609 14.2292 56.2148 14.1016C55.9733 13.9694 55.6087 13.8555 55.1211 13.7598C54.7109 13.6732 54.3395 13.5706 54.0068 13.4521C53.6787 13.3337 53.3984 13.1901 53.166 13.0215C52.9382 12.8529 52.7627 12.6546 52.6396 12.4268C52.5166 12.1989 52.4551 11.9323 52.4551 11.627C52.4551 11.3353 52.5189 11.0596 52.6465 10.7998C52.7786 10.54 52.9632 10.3099 53.2002 10.1094C53.4417 9.90885 53.7311 9.75163 54.0684 9.6377C54.4056 9.52376 54.7816 9.4668 55.1963 9.4668C55.7887 9.4668 56.2946 9.57161 56.7139 9.78125C57.1331 9.99089 57.4544 10.2712 57.6777 10.6221C57.901 10.9684 58.0127 11.3535 58.0127 11.7773H56.748C56.748 11.5723 56.6865 11.374 56.5635 11.1826C56.445 10.9867 56.2695 10.8249 56.0371 10.6973C55.8092 10.5697 55.529 10.5059 55.1963 10.5059C54.8454 10.5059 54.5605 10.5605 54.3418 10.6699C54.1276 10.7747 53.9704 10.9092 53.8701 11.0732C53.7744 11.2373 53.7266 11.4105 53.7266 11.5928C53.7266 11.7295 53.7493 11.8525 53.7949 11.9619C53.8451 12.0667 53.9316 12.1647 54.0547 12.2559C54.1777 12.3424 54.3509 12.4245 54.5742 12.502C54.7975 12.5794 55.0824 12.6569 55.4287 12.7344C56.0348 12.8711 56.5339 13.0352 56.9258 13.2266C57.3177 13.418 57.6094 13.6527 57.8008 13.9307C57.9922 14.2087 58.0879 14.5459 58.0879 14.9424C58.0879 15.266 58.0195 15.5622 57.8828 15.8311C57.7507 16.0999 57.557 16.3324 57.3018 16.5283C57.0511 16.7197 56.7503 16.8701 56.3994 16.9795C56.0531 17.0843 55.6634 17.1367 55.2305 17.1367C54.5788 17.1367 54.0273 17.0205 53.5762 16.7881C53.125 16.5557 52.7832 16.2549 52.5508 15.8857C52.3184 15.5166 52.2021 15.127 52.2021 14.7168H53.4736C53.4919 15.0632 53.5921 15.3389 53.7744 15.5439C53.9567 15.7445 54.18 15.888 54.4443 15.9746C54.7087 16.0566 54.9707 16.0977 55.2305 16.0977C55.5768 16.0977 55.8662 16.0521 56.0986 15.9609C56.3356 15.8698 56.5156 15.7445 56.6387 15.585C56.7617 15.4255 56.8232 15.2432 56.8232 15.0381ZM62.709 16.0977C63.0098 16.0977 63.2878 16.0361 63.543 15.9131C63.7982 15.79 64.0078 15.6214 64.1719 15.4072C64.3359 15.1885 64.4294 14.9401 64.4521 14.6621H65.6553C65.6325 15.0996 65.4844 15.5075 65.2109 15.8857C64.9421 16.2594 64.5889 16.5625 64.1514 16.7949C63.7139 17.0228 63.2331 17.1367 62.709 17.1367C62.153 17.1367 61.6676 17.0387 61.2529 16.8428C60.8428 16.6468 60.501 16.3779 60.2275 16.0361C59.9587 15.6943 59.7559 15.3024 59.6191 14.8604C59.487 14.4137 59.4209 13.9421 59.4209 13.4453V13.1582C59.4209 12.6615 59.487 12.1921 59.6191 11.75C59.7559 11.3034 59.9587 10.9092 60.2275 10.5674C60.501 10.2256 60.8428 9.95671 61.2529 9.76074C61.6676 9.56478 62.153 9.4668 62.709 9.4668C63.2878 9.4668 63.7936 9.58529 64.2266 9.82227C64.6595 10.0547 64.999 10.3737 65.2451 10.7793C65.4958 11.1803 65.6325 11.6361 65.6553 12.1465H64.4521C64.4294 11.8411 64.3428 11.5654 64.1924 11.3193C64.0465 11.0732 63.846 10.8773 63.5908 10.7314C63.3402 10.5811 63.0462 10.5059 62.709 10.5059C62.3216 10.5059 61.9958 10.5833 61.7314 10.7383C61.4717 10.8887 61.2643 11.0938 61.1094 11.3535C60.959 11.6087 60.8496 11.8936 60.7812 12.208C60.7174 12.5179 60.6855 12.8346 60.6855 13.1582V13.4453C60.6855 13.7689 60.7174 14.0879 60.7812 14.4023C60.8451 14.7168 60.9521 15.0016 61.1025 15.2568C61.2575 15.512 61.4648 15.7171 61.7246 15.8721C61.9889 16.0225 62.3171 16.0977 62.709 16.0977ZM68.3418 10.7656V17H67.0771V9.60352H68.3076L68.3418 10.7656ZM70.6523 9.5625L70.6455 10.7383C70.5407 10.7155 70.4404 10.7018 70.3447 10.6973C70.2536 10.6882 70.1488 10.6836 70.0303 10.6836C69.7386 10.6836 69.4811 10.7292 69.2578 10.8203C69.0345 10.9115 68.8454 11.0391 68.6904 11.2031C68.5355 11.3672 68.4124 11.5632 68.3213 11.791C68.2347 12.0143 68.1777 12.2604 68.1504 12.5293L67.7949 12.7344C67.7949 12.2878 67.8382 11.8685 67.9248 11.4766C68.016 11.0846 68.1549 10.7383 68.3418 10.4375C68.5286 10.1322 68.7656 9.89518 69.0527 9.72656C69.3444 9.55339 69.6908 9.4668 70.0918 9.4668C70.1829 9.4668 70.2878 9.47819 70.4062 9.50098C70.5247 9.51921 70.6068 9.53971 70.6523 9.5625ZM73.1953 9.60352V17H71.9238V9.60352H73.1953ZM71.8281 7.6416C71.8281 7.43652 71.8896 7.26335 72.0127 7.12207C72.1403 6.98079 72.3271 6.91016 72.5732 6.91016C72.8148 6.91016 72.9993 6.98079 73.127 7.12207C73.2591 7.26335 73.3252 7.43652 73.3252 7.6416C73.3252 7.83757 73.2591 8.00618 73.127 8.14746C72.9993 8.28418 72.8148 8.35254 72.5732 8.35254C72.3271 8.35254 72.1403 8.28418 72.0127 8.14746C71.8896 8.00618 71.8281 7.83757 71.8281 7.6416ZM78.1855 16.0977C78.4863 16.0977 78.7643 16.0361 79.0195 15.9131C79.2747 15.79 79.4844 15.6214 79.6484 15.4072C79.8125 15.1885 79.9059 14.9401 79.9287 14.6621H81.1318C81.109 15.0996 80.9609 15.5075 80.6875 15.8857C80.4186 16.2594 80.0654 16.5625 79.6279 16.7949C79.1904 17.0228 78.7096 17.1367 78.1855 17.1367C77.6296 17.1367 77.1442 17.0387 76.7295 16.8428C76.3193 16.6468 75.9775 16.3779 75.7041 16.0361C75.4352 15.6943 75.2324 15.3024 75.0957 14.8604C74.9635 14.4137 74.8975 13.9421 74.8975 13.4453V13.1582C74.8975 12.6615 74.9635 12.1921 75.0957 11.75C75.2324 11.3034 75.4352 10.9092 75.7041 10.5674C75.9775 10.2256 76.3193 9.95671 76.7295 9.76074C77.1442 9.56478 77.6296 9.4668 78.1855 9.4668C78.7643 9.4668 79.2702 9.58529 79.7031 9.82227C80.1361 10.0547 80.4756 10.3737 80.7217 10.7793C80.9723 11.1803 81.109 11.6361 81.1318 12.1465H79.9287C79.9059 11.8411 79.8193 11.5654 79.6689 11.3193C79.5231 11.0732 79.3226 10.8773 79.0674 10.7314C78.8167 10.5811 78.5228 10.5059 78.1855 10.5059C77.7982 10.5059 77.4723 10.5833 77.208 10.7383C76.9482 10.8887 76.7409 11.0938 76.5859 11.3535C76.4355 11.6087 76.3262 11.8936 76.2578 12.208C76.194 12.5179 76.1621 12.8346 76.1621 13.1582V13.4453C76.1621 13.7689 76.194 14.0879 76.2578 14.4023C76.3216 14.7168 76.4287 15.0016 76.5791 15.2568C76.734 15.512 76.9414 15.7171 77.2012 15.8721C77.4655 16.0225 77.7936 16.0977 78.1855 16.0977ZM77.4883 17.0684H78.3975L78.3154 17.4307C78.5798 17.4762 78.819 17.5856 79.0332 17.7588C79.252 17.932 79.3613 18.2168 79.3613 18.6133C79.3613 18.8275 79.3158 19.0212 79.2246 19.1943C79.138 19.3721 79.0081 19.5225 78.835 19.6455C78.6618 19.7731 78.4453 19.8711 78.1855 19.9395C77.9303 20.0078 77.6318 20.042 77.29 20.042L77.2422 19.3105C77.4518 19.3105 77.641 19.2878 77.8096 19.2422C77.9827 19.1966 78.1195 19.1237 78.2197 19.0234C78.3245 18.9232 78.377 18.7933 78.377 18.6338C78.377 18.4834 78.3382 18.3649 78.2607 18.2783C78.1833 18.1917 78.0625 18.1257 77.8984 18.0801C77.7389 18.0391 77.5316 18.0094 77.2764 17.9912L77.4883 17.0684ZM82.2188 13.3838V13.2266C82.2188 12.6934 82.2962 12.1989 82.4512 11.7432C82.6061 11.2829 82.8294 10.8841 83.1211 10.5469C83.4128 10.2051 83.766 9.94076 84.1807 9.75391C84.5954 9.5625 85.0602 9.4668 85.5752 9.4668C86.0947 9.4668 86.5618 9.5625 86.9766 9.75391C87.3958 9.94076 87.7513 10.2051 88.043 10.5469C88.3392 10.8841 88.5648 11.2829 88.7197 11.7432C88.8747 12.1989 88.9521 12.6934 88.9521 13.2266V13.3838C88.9521 13.917 88.8747 14.4115 88.7197 14.8672C88.5648 15.3229 88.3392 15.7217 88.043 16.0635C87.7513 16.4007 87.3981 16.665 86.9834 16.8564C86.5732 17.0433 86.1084 17.1367 85.5889 17.1367C85.0693 17.1367 84.6022 17.0433 84.1875 16.8564C83.7728 16.665 83.4173 16.4007 83.1211 16.0635C82.8294 15.7217 82.6061 15.3229 82.4512 14.8672C82.2962 14.4115 82.2188 13.917 82.2188 13.3838ZM83.4834 13.2266V13.3838C83.4834 13.7529 83.5267 14.1016 83.6133 14.4297C83.6999 14.7533 83.8298 15.0404 84.0029 15.291C84.1807 15.5417 84.4017 15.7399 84.666 15.8857C84.9303 16.027 85.238 16.0977 85.5889 16.0977C85.9352 16.0977 86.2383 16.027 86.498 15.8857C86.7624 15.7399 86.9811 15.5417 87.1543 15.291C87.3275 15.0404 87.4574 14.7533 87.5439 14.4297C87.6351 14.1016 87.6807 13.7529 87.6807 13.3838V13.2266C87.6807 12.862 87.6351 12.5179 87.5439 12.1943C87.4574 11.8662 87.3252 11.5768 87.1475 11.3262C86.9743 11.071 86.7555 10.8704 86.4912 10.7246C86.2314 10.5788 85.9261 10.5059 85.5752 10.5059C85.2288 10.5059 84.9235 10.5788 84.6592 10.7246C84.3994 10.8704 84.1807 11.071 84.0029 11.3262C83.8298 11.5768 83.6999 11.8662 83.6133 12.1943C83.5267 12.5179 83.4834 12.862 83.4834 13.2266ZM87.0928 6.63672L87.9473 6.71191C87.9473 7.0446 87.8812 7.33626 87.749 7.58691C87.6169 7.83757 87.4391 8.03125 87.2158 8.16797C86.9971 8.30469 86.7487 8.37305 86.4707 8.37305C86.2383 8.37305 86.0469 8.34115 85.8965 8.27734C85.7461 8.20898 85.6117 8.13379 85.4932 8.05176C85.3747 7.96517 85.2493 7.88997 85.1172 7.82617C84.9896 7.75781 84.8301 7.72363 84.6387 7.72363C84.4473 7.72363 84.2855 7.79655 84.1533 7.94238C84.0257 8.08822 83.9619 8.26823 83.9619 8.48242L83.1074 8.44141C83.1074 8.10872 83.1712 7.81706 83.2988 7.56641C83.431 7.3112 83.6087 7.11296 83.832 6.97168C84.0553 6.82585 84.3037 6.75293 84.5771 6.75293C84.7731 6.75293 84.944 6.78711 85.0898 6.85547C85.2402 6.91927 85.3815 6.99447 85.5137 7.08105C85.6458 7.16309 85.7826 7.23828 85.9238 7.30664C86.0651 7.37044 86.2269 7.40234 86.4092 7.40234C86.6006 7.40234 86.7624 7.32943 86.8945 7.18359C87.0267 7.0332 87.0928 6.85091 87.0928 6.63672ZM93.6074 17.1367C93.0924 17.1367 92.6253 17.0501 92.2061 16.877C91.7913 16.6992 91.4336 16.4508 91.1328 16.1318C90.8366 15.8128 90.6087 15.4346 90.4492 14.9971C90.2897 14.5596 90.21 14.0811 90.21 13.5615V13.2744C90.21 12.6729 90.2988 12.1374 90.4766 11.668C90.6543 11.194 90.8958 10.793 91.2012 10.4648C91.5065 10.1367 91.8529 9.88835 92.2402 9.71973C92.6276 9.55111 93.0286 9.4668 93.4434 9.4668C93.972 9.4668 94.4277 9.55794 94.8105 9.74023C95.1979 9.92253 95.5146 10.1777 95.7607 10.5059C96.0068 10.8294 96.1891 11.2122 96.3076 11.6543C96.4261 12.0918 96.4854 12.5703 96.4854 13.0898V13.6572H90.9619V12.625H95.2207V12.5293C95.2025 12.2012 95.1341 11.8822 95.0156 11.5723C94.9017 11.2624 94.7194 11.0072 94.4688 10.8066C94.2181 10.6061 93.8763 10.5059 93.4434 10.5059C93.1562 10.5059 92.8919 10.5674 92.6504 10.6904C92.4089 10.8089 92.2015 10.9867 92.0283 11.2236C91.8551 11.4606 91.7207 11.75 91.625 12.0918C91.5293 12.4336 91.4814 12.8278 91.4814 13.2744V13.5615C91.4814 13.9124 91.5293 14.2428 91.625 14.5527C91.7253 14.8581 91.8688 15.127 92.0557 15.3594C92.2471 15.5918 92.4772 15.7741 92.7461 15.9062C93.0195 16.0384 93.3294 16.1045 93.6758 16.1045C94.1224 16.1045 94.5007 16.0133 94.8105 15.8311C95.1204 15.6488 95.3916 15.4049 95.624 15.0996L96.3896 15.708C96.2301 15.9495 96.0273 16.1797 95.7812 16.3984C95.5352 16.6172 95.2321 16.7949 94.8721 16.9316C94.5166 17.0684 94.0951 17.1367 93.6074 17.1367ZM102.269 15.0381C102.269 14.8558 102.228 14.6872 102.146 14.5322C102.068 14.3727 101.906 14.2292 101.66 14.1016C101.419 13.9694 101.054 13.8555 100.566 13.7598C100.156 13.6732 99.7848 13.5706 99.4521 13.4521C99.124 13.3337 98.8438 13.1901 98.6113 13.0215C98.3835 12.8529 98.208 12.6546 98.085 12.4268C97.9619 12.1989 97.9004 11.9323 97.9004 11.627C97.9004 11.3353 97.9642 11.0596 98.0918 10.7998C98.224 10.54 98.4085 10.3099 98.6455 10.1094C98.887 9.90885 99.1764 9.75163 99.5137 9.6377C99.8509 9.52376 100.227 9.4668 100.642 9.4668C101.234 9.4668 101.74 9.57161 102.159 9.78125C102.578 9.99089 102.9 10.2712 103.123 10.6221C103.346 10.9684 103.458 11.3535 103.458 11.7773H102.193C102.193 11.5723 102.132 11.374 102.009 11.1826C101.89 10.9867 101.715 10.8249 101.482 10.6973C101.255 10.5697 100.974 10.5059 100.642 10.5059C100.291 10.5059 100.006 10.5605 99.7871 10.6699C99.5729 10.7747 99.4157 10.9092 99.3154 11.0732C99.2197 11.2373 99.1719 11.4105 99.1719 11.5928C99.1719 11.7295 99.1947 11.8525 99.2402 11.9619C99.2904 12.0667 99.377 12.1647 99.5 12.2559C99.623 12.3424 99.7962 12.4245 100.02 12.502C100.243 12.5794 100.528 12.6569 100.874 12.7344C101.48 12.8711 101.979 13.0352 102.371 13.2266C102.763 13.418 103.055 13.6527 103.246 13.9307C103.438 14.2087 103.533 14.5459 103.533 14.9424C103.533 15.266 103.465 15.5622 103.328 15.8311C103.196 16.0999 103.002 16.3324 102.747 16.5283C102.496 16.7197 102.196 16.8701 101.845 16.9795C101.498 17.0843 101.109 17.1367 100.676 17.1367C100.024 17.1367 99.4727 17.0205 99.0215 16.7881C98.5703 16.5557 98.2285 16.2549 97.9961 15.8857C97.7637 15.5166 97.6475 15.127 97.6475 14.7168H98.9189C98.9372 15.0632 99.0374 15.3389 99.2197 15.5439C99.402 15.7445 99.6253 15.888 99.8896 15.9746C100.154 16.0566 100.416 16.0977 100.676 16.0977C101.022 16.0977 101.312 16.0521 101.544 15.9609C101.781 15.8698 101.961 15.7445 102.084 15.585C102.207 15.4255 102.269 15.2432 102.269 15.0381Z" fill="black"/>
</svg>
