<svg width="110" height="24" viewBox="0 0 110 24" fill="none" xmlns="http://www.w3.org/2000/svg">
<path d="M21 15V19C21 19.5304 20.7893 20.0391 20.4142 20.4142C20.0391 20.7893 19.5304 21 19 21H5C4.46957 21 3.96086 20.7893 3.58579 20.4142C3.21071 20.0391 3 19.5304 3 19V15" stroke="black" stroke-linecap="round" stroke-linejoin="round"/>
<path d="M7 10L12 15L17 10" stroke="black" stroke-linecap="round" stroke-linejoin="round"/>
<path d="M12 15V3" stroke="black" stroke-linecap="round" stroke-linejoin="round"/>
<path d="M43.8486 17H41.7705L41.7842 15.9268H43.8486C44.5596 15.9268 45.152 15.7786 45.626 15.4824C46.0999 15.1816 46.4554 14.7624 46.6924 14.2246C46.9339 13.6823 47.0547 13.0488 47.0547 12.3242V11.7158C47.0547 11.1462 46.9863 10.6403 46.8496 10.1982C46.7129 9.75163 46.5124 9.37565 46.248 9.07031C45.9837 8.76042 45.6602 8.52572 45.2773 8.36621C44.8991 8.20671 44.4639 8.12695 43.9717 8.12695H41.7295V7.04688H43.9717C44.6234 7.04688 45.2181 7.15625 45.7559 7.375C46.2936 7.58919 46.7562 7.90137 47.1436 8.31152C47.5355 8.71712 47.8363 9.20931 48.0459 9.78809C48.2555 10.3623 48.3604 11.0094 48.3604 11.7295V12.3242C48.3604 13.0443 48.2555 13.6937 48.0459 14.2725C47.8363 14.8467 47.5332 15.3366 47.1367 15.7422C46.7448 16.1478 46.2708 16.46 45.7148 16.6787C45.1634 16.8929 44.5413 17 43.8486 17ZM42.4746 7.04688V17H41.1553V7.04688H42.4746ZM49.8164 13.3838V13.2266C49.8164 12.6934 49.8939 12.1989 50.0488 11.7432C50.2038 11.2829 50.4271 10.8841 50.7188 10.5469C51.0104 10.2051 51.3636 9.94076 51.7783 9.75391C52.193 9.5625 52.6579 9.4668 53.1729 9.4668C53.6924 9.4668 54.1595 9.5625 54.5742 9.75391C54.9935 9.94076 55.349 10.2051 55.6406 10.5469C55.9368 10.8841 56.1624 11.2829 56.3174 11.7432C56.4723 12.1989 56.5498 12.6934 56.5498 13.2266V13.3838C56.5498 13.917 56.4723 14.4115 56.3174 14.8672C56.1624 15.3229 55.9368 15.7217 55.6406 16.0635C55.349 16.4007 54.9958 16.665 54.5811 16.8564C54.1709 17.0433 53.7061 17.1367 53.1865 17.1367C52.667 17.1367 52.1999 17.0433 51.7852 16.8564C51.3704 16.665 51.015 16.4007 50.7188 16.0635C50.4271 15.7217 50.2038 15.3229 50.0488 14.8672C49.8939 14.4115 49.8164 13.917 49.8164 13.3838ZM51.0811 13.2266V13.3838C51.0811 13.7529 51.1243 14.1016 51.2109 14.4297C51.2975 14.7533 51.4274 15.0404 51.6006 15.291C51.7783 15.5417 51.9993 15.7399 52.2637 15.8857C52.528 16.027 52.8356 16.0977 53.1865 16.0977C53.5329 16.0977 53.8359 16.027 54.0957 15.8857C54.36 15.7399 54.5788 15.5417 54.752 15.291C54.9251 15.0404 55.055 14.7533 55.1416 14.4297C55.2327 14.1016 55.2783 13.7529 55.2783 13.3838V13.2266C55.2783 12.862 55.2327 12.5179 55.1416 12.1943C55.055 11.8662 54.9229 11.5768 54.7451 11.3262C54.5719 11.071 54.3532 10.8704 54.0889 10.7246C53.8291 10.5788 53.5238 10.5059 53.1729 10.5059C52.8265 10.5059 52.5212 10.5788 52.2568 10.7246C51.9971 10.8704 51.7783 11.071 51.6006 11.3262C51.4274 11.5768 51.2975 11.8662 51.2109 12.1943C51.1243 12.5179 51.0811 12.862 51.0811 13.2266ZM60.0088 15.6875L61.9092 9.60352H62.7432L62.5791 10.8135L60.6445 17H59.8311L60.0088 15.6875ZM58.7305 9.60352L60.3506 15.7559L60.4668 17H59.6123L57.4658 9.60352H58.7305ZM64.5615 15.708L66.1064 9.60352H67.3643L65.2178 17H64.3701L64.5615 15.708ZM62.9277 9.60352L64.7871 15.585L64.999 17H64.1924L62.2031 10.7998L62.0391 9.60352H62.9277ZM69.9277 11.1826V17H68.6631V9.60352H69.8594L69.9277 11.1826ZM69.627 13.0215L69.1006 13.001C69.1051 12.4951 69.1803 12.028 69.3262 11.5996C69.472 11.1667 69.6771 10.7907 69.9414 10.4717C70.2057 10.1527 70.5202 9.90658 70.8848 9.7334C71.2539 9.55566 71.6618 9.4668 72.1084 9.4668C72.473 9.4668 72.8011 9.51693 73.0928 9.61719C73.3844 9.71289 73.6328 9.86784 73.8379 10.082C74.0475 10.2962 74.207 10.5742 74.3164 10.916C74.4258 11.2533 74.4805 11.6657 74.4805 12.1533V17H73.209V12.1396C73.209 11.7523 73.152 11.4424 73.0381 11.21C72.9242 10.973 72.7578 10.8021 72.5391 10.6973C72.3203 10.5879 72.0514 10.5332 71.7324 10.5332C71.418 10.5332 71.1309 10.5993 70.8711 10.7314C70.6159 10.8636 70.3949 11.0459 70.208 11.2783C70.0257 11.5107 69.8822 11.7773 69.7773 12.0781C69.6771 12.3743 69.627 12.6888 69.627 13.0215ZM77.7754 6.5V17H76.5039V6.5H77.7754ZM79.4707 13.3838V13.2266C79.4707 12.6934 79.5482 12.1989 79.7031 11.7432C79.8581 11.2829 80.0814 10.8841 80.373 10.5469C80.6647 10.2051 81.0179 9.94076 81.4326 9.75391C81.8473 9.5625 82.3122 9.4668 82.8271 9.4668C83.3467 9.4668 83.8138 9.5625 84.2285 9.75391C84.6478 9.94076 85.0033 10.2051 85.2949 10.5469C85.5911 10.8841 85.8167 11.2829 85.9717 11.7432C86.1266 12.1989 86.2041 12.6934 86.2041 13.2266V13.3838C86.2041 13.917 86.1266 14.4115 85.9717 14.8672C85.8167 15.3229 85.5911 15.7217 85.2949 16.0635C85.0033 16.4007 84.6501 16.665 84.2354 16.8564C83.8252 17.0433 83.3604 17.1367 82.8408 17.1367C82.3213 17.1367 81.8542 17.0433 81.4395 16.8564C81.0247 16.665 80.6693 16.4007 80.373 16.0635C80.0814 15.7217 79.8581 15.3229 79.7031 14.8672C79.5482 14.4115 79.4707 13.917 79.4707 13.3838ZM80.7354 13.2266V13.3838C80.7354 13.7529 80.7786 14.1016 80.8652 14.4297C80.9518 14.7533 81.0817 15.0404 81.2549 15.291C81.4326 15.5417 81.6536 15.7399 81.918 15.8857C82.1823 16.027 82.4899 16.0977 82.8408 16.0977C83.1872 16.0977 83.4902 16.027 83.75 15.8857C84.0143 15.7399 84.2331 15.5417 84.4062 15.291C84.5794 15.0404 84.7093 14.7533 84.7959 14.4297C84.887 14.1016 84.9326 13.7529 84.9326 13.3838V13.2266C84.9326 12.862 84.887 12.5179 84.7959 12.1943C84.7093 11.8662 84.5771 11.5768 84.3994 11.3262C84.2262 11.071 84.0075 10.8704 83.7432 10.7246C83.4834 10.5788 83.1781 10.5059 82.8271 10.5059C82.4808 10.5059 82.1755 10.5788 81.9111 10.7246C81.6514 10.8704 81.4326 11.071 81.2549 11.3262C81.0817 11.5768 80.9518 11.8662 80.8652 12.1943C80.7786 12.5179 80.7354 12.862 80.7354 13.2266ZM92.1514 15.7354V11.9277C92.1514 11.6361 92.0921 11.3831 91.9736 11.1689C91.8597 10.9502 91.6865 10.7816 91.4541 10.6631C91.2217 10.5446 90.9346 10.4854 90.5928 10.4854C90.2738 10.4854 89.9935 10.54 89.752 10.6494C89.515 10.7588 89.3281 10.9023 89.1914 11.0801C89.0592 11.2578 88.9932 11.4492 88.9932 11.6543H87.7285C87.7285 11.39 87.7969 11.1279 87.9336 10.8682C88.0703 10.6084 88.2663 10.3737 88.5215 10.1641C88.7812 9.94987 89.0911 9.78125 89.4512 9.6582C89.8158 9.5306 90.2214 9.4668 90.668 9.4668C91.2057 9.4668 91.6797 9.55794 92.0898 9.74023C92.5046 9.92253 92.8281 10.1982 93.0605 10.5674C93.2975 10.932 93.416 11.39 93.416 11.9414V15.3867C93.416 15.6328 93.4365 15.8949 93.4775 16.1729C93.5231 16.4508 93.5892 16.6901 93.6758 16.8906V17H92.3564C92.2926 16.8542 92.2425 16.6605 92.2061 16.4189C92.1696 16.1729 92.1514 15.945 92.1514 15.7354ZM92.3701 12.5156L92.3838 13.4043H91.1055C90.7454 13.4043 90.4242 13.4339 90.1416 13.4932C89.859 13.5479 89.6221 13.6322 89.4307 13.7461C89.2393 13.86 89.0934 14.0036 88.9932 14.1768C88.8929 14.3454 88.8428 14.5436 88.8428 14.7715C88.8428 15.0039 88.8952 15.2158 89 15.4072C89.1048 15.5986 89.262 15.7513 89.4717 15.8652C89.6859 15.9746 89.9479 16.0293 90.2578 16.0293C90.6452 16.0293 90.987 15.9473 91.2832 15.7832C91.5794 15.6191 91.8141 15.4186 91.9873 15.1816C92.165 14.9447 92.2607 14.7145 92.2744 14.4912L92.8145 15.0996C92.7826 15.291 92.696 15.5029 92.5547 15.7354C92.4134 15.9678 92.2243 16.1911 91.9873 16.4053C91.7549 16.6149 91.4769 16.7904 91.1533 16.9316C90.8343 17.0684 90.4743 17.1367 90.0732 17.1367C89.5719 17.1367 89.1322 17.0387 88.7539 16.8428C88.3802 16.6468 88.0885 16.3848 87.8789 16.0566C87.6738 15.724 87.5713 15.3525 87.5713 14.9424C87.5713 14.5459 87.6488 14.1973 87.8037 13.8965C87.9587 13.5911 88.182 13.3382 88.4736 13.1377C88.7653 12.9326 89.1162 12.7777 89.5264 12.6729C89.9365 12.568 90.3945 12.5156 90.9004 12.5156H92.3701ZM100.067 15.5645V6.5H101.339V17H100.177L100.067 15.5645ZM95.0908 13.3838V13.2402C95.0908 12.6751 95.1592 12.1624 95.2959 11.7021C95.4372 11.2373 95.6354 10.8385 95.8906 10.5059C96.1504 10.1732 96.458 9.91797 96.8135 9.74023C97.1735 9.55794 97.5745 9.4668 98.0166 9.4668C98.4814 9.4668 98.887 9.54883 99.2334 9.71289C99.5843 9.8724 99.8805 10.1071 100.122 10.417C100.368 10.7223 100.562 11.0915 100.703 11.5244C100.844 11.9574 100.942 12.4473 100.997 12.9941V13.623C100.947 14.1654 100.849 14.653 100.703 15.0859C100.562 15.5189 100.368 15.888 100.122 16.1934C99.8805 16.4987 99.5843 16.7334 99.2334 16.8975C98.8825 17.057 98.4723 17.1367 98.0029 17.1367C97.57 17.1367 97.1735 17.0433 96.8135 16.8564C96.458 16.6696 96.1504 16.4076 95.8906 16.0703C95.6354 15.7331 95.4372 15.3366 95.2959 14.8809C95.1592 14.4206 95.0908 13.9215 95.0908 13.3838ZM96.3623 13.2402V13.3838C96.3623 13.7529 96.3988 14.0993 96.4717 14.4229C96.5492 14.7464 96.6676 15.0312 96.8271 15.2773C96.9867 15.5234 97.1895 15.7171 97.4355 15.8584C97.6816 15.9951 97.9756 16.0635 98.3174 16.0635C98.7367 16.0635 99.0807 15.9746 99.3496 15.7969C99.623 15.6191 99.8418 15.3844 100.006 15.0928C100.17 14.8011 100.298 14.4844 100.389 14.1426V12.4951C100.334 12.2445 100.254 12.0029 100.149 11.7705C100.049 11.5335 99.917 11.3239 99.7529 11.1416C99.5934 10.9548 99.3952 10.8066 99.1582 10.6973C98.9258 10.5879 98.6501 10.5332 98.3311 10.5332C97.9847 10.5332 97.6862 10.6061 97.4355 10.752C97.1895 10.8932 96.9867 11.0892 96.8271 11.3398C96.6676 11.5859 96.5492 11.873 96.4717 12.2012C96.3988 12.5247 96.3623 12.8711 96.3623 13.2402ZM107.614 15.0381C107.614 14.8558 107.573 14.6872 107.491 14.5322C107.414 14.3727 107.252 14.2292 107.006 14.1016C106.764 13.9694 106.4 13.8555 105.912 13.7598C105.502 13.6732 105.131 13.5706 104.798 13.4521C104.47 13.3337 104.189 13.1901 103.957 13.0215C103.729 12.8529 103.554 12.6546 103.431 12.4268C103.308 12.1989 103.246 11.9323 103.246 11.627C103.246 11.3353 103.31 11.0596 103.438 10.7998C103.57 10.54 103.754 10.3099 103.991 10.1094C104.233 9.90885 104.522 9.75163 104.859 9.6377C105.197 9.52376 105.573 9.4668 105.987 9.4668C106.58 9.4668 107.086 9.57161 107.505 9.78125C107.924 9.99089 108.245 10.2712 108.469 10.6221C108.692 10.9684 108.804 11.3535 108.804 11.7773H107.539C107.539 11.5723 107.478 11.374 107.354 11.1826C107.236 10.9867 107.061 10.8249 106.828 10.6973C106.6 10.5697 106.32 10.5059 105.987 10.5059C105.636 10.5059 105.352 10.5605 105.133 10.6699C104.919 10.7747 104.761 10.9092 104.661 11.0732C104.565 11.2373 104.518 11.4105 104.518 11.5928C104.518 11.7295 104.54 11.8525 104.586 11.9619C104.636 12.0667 104.723 12.1647 104.846 12.2559C104.969 12.3424 105.142 12.4245 105.365 12.502C105.589 12.5794 105.873 12.6569 106.22 12.7344C106.826 12.8711 107.325 13.0352 107.717 13.2266C108.109 13.418 108.4 13.6527 108.592 13.9307C108.783 14.2087 108.879 14.5459 108.879 14.9424C108.879 15.266 108.811 15.5622 108.674 15.8311C108.542 16.0999 108.348 16.3324 108.093 16.5283C107.842 16.7197 107.541 16.8701 107.19 16.9795C106.844 17.0843 106.454 17.1367 106.021 17.1367C105.37 17.1367 104.818 17.0205 104.367 16.7881C103.916 16.5557 103.574 16.2549 103.342 15.8857C103.109 15.5166 102.993 15.127 102.993 14.7168H104.265C104.283 15.0632 104.383 15.3389 104.565 15.5439C104.748 15.7445 104.971 15.888 105.235 15.9746C105.5 16.0566 105.762 16.0977 106.021 16.0977C106.368 16.0977 106.657 16.0521 106.89 15.9609C107.127 15.8698 107.307 15.7445 107.43 15.585C107.553 15.4255 107.614 15.2432 107.614 15.0381Z" fill="black"/>
</svg>
