<svg width="91" height="24" viewBox="0 0 91 24" fill="none" xmlns="http://www.w3.org/2000/svg">
<path d="M12 22C17.5228 22 22 17.5228 22 12C22 6.47715 17.5228 2 12 2C6.47715 2 2 6.47715 2 12C2 17.5228 6.47715 22 12 22Z" stroke="black" stroke-linecap="round" stroke-linejoin="round"/>
<path d="M16.24 7.76001L14.12 14.12L7.76001 16.24L9.88001 9.88001L16.24 7.76001Z" stroke="black" stroke-linecap="round" stroke-linejoin="round"/>
<path d="M47.4785 15.9268V17H42.208V15.9268H47.4785ZM42.4746 7.04688V17H41.1553V7.04688H42.4746ZM46.7812 11.3262V12.3994H42.208V11.3262H46.7812ZM47.4102 7.04688V8.12695H42.208V7.04688H47.4102ZM49.7754 9.60352L51.3955 12.2969L53.0361 9.60352H54.5195L52.0996 13.2539L54.5947 17H53.1318L51.4229 14.2246L49.7139 17H48.2441L50.7324 13.2539L48.3193 9.60352H49.7754ZM57.1309 11.0254V19.8438H55.8594V9.60352H57.0215L57.1309 11.0254ZM62.1143 13.2402V13.3838C62.1143 13.9215 62.0505 14.4206 61.9229 14.8809C61.7952 15.3366 61.6084 15.7331 61.3623 16.0703C61.1208 16.4076 60.8223 16.6696 60.4668 16.8564C60.1113 17.0433 59.7035 17.1367 59.2432 17.1367C58.7738 17.1367 58.359 17.0592 57.999 16.9043C57.639 16.7493 57.3337 16.5238 57.083 16.2275C56.8324 15.9313 56.6318 15.5758 56.4814 15.1611C56.3356 14.7464 56.2354 14.2793 56.1807 13.7598V12.9941C56.2354 12.4473 56.3379 11.9574 56.4883 11.5244C56.6387 11.0915 56.8369 10.7223 57.083 10.417C57.3337 10.1071 57.6367 9.8724 57.9922 9.71289C58.3477 9.54883 58.7578 9.4668 59.2227 9.4668C59.6875 9.4668 60.0999 9.55794 60.46 9.74023C60.82 9.91797 61.123 10.1732 61.3691 10.5059C61.6152 10.8385 61.7998 11.2373 61.9229 11.7021C62.0505 12.1624 62.1143 12.6751 62.1143 13.2402ZM60.8428 13.3838V13.2402C60.8428 12.8711 60.804 12.5247 60.7266 12.2012C60.6491 11.873 60.5283 11.5859 60.3643 11.3398C60.2048 11.0892 59.9997 10.8932 59.749 10.752C59.4984 10.6061 59.1999 10.5332 58.8535 10.5332C58.5345 10.5332 58.2565 10.5879 58.0195 10.6973C57.7871 10.8066 57.5889 10.9548 57.4248 11.1416C57.2607 11.3239 57.1263 11.5335 57.0215 11.7705C56.9212 12.0029 56.846 12.2445 56.7959 12.4951V14.2656C56.887 14.5846 57.0146 14.8854 57.1787 15.168C57.3428 15.446 57.5615 15.6715 57.835 15.8447C58.1084 16.0133 58.4525 16.0977 58.8672 16.0977C59.209 16.0977 59.5029 16.027 59.749 15.8857C59.9997 15.7399 60.2048 15.5417 60.3643 15.291C60.5283 15.0404 60.6491 14.7533 60.7266 14.4297C60.804 14.1016 60.8428 13.7529 60.8428 13.3838ZM65.1016 6.5V17H63.8301V6.5H65.1016ZM66.7969 13.3838V13.2266C66.7969 12.6934 66.8743 12.1989 67.0293 11.7432C67.1842 11.2829 67.4076 10.8841 67.6992 10.5469C67.9909 10.2051 68.3441 9.94076 68.7588 9.75391C69.1735 9.5625 69.6383 9.4668 70.1533 9.4668C70.6729 9.4668 71.14 9.5625 71.5547 9.75391C71.974 9.94076 72.3294 10.2051 72.6211 10.5469C72.9173 10.8841 73.1429 11.2829 73.2979 11.7432C73.4528 12.1989 73.5303 12.6934 73.5303 13.2266V13.3838C73.5303 13.917 73.4528 14.4115 73.2979 14.8672C73.1429 15.3229 72.9173 15.7217 72.6211 16.0635C72.3294 16.4007 71.9762 16.665 71.5615 16.8564C71.1514 17.0433 70.6865 17.1367 70.167 17.1367C69.6475 17.1367 69.1803 17.0433 68.7656 16.8564C68.3509 16.665 67.9954 16.4007 67.6992 16.0635C67.4076 15.7217 67.1842 15.3229 67.0293 14.8672C66.8743 14.4115 66.7969 13.917 66.7969 13.3838ZM68.0615 13.2266V13.3838C68.0615 13.7529 68.1048 14.1016 68.1914 14.4297C68.278 14.7533 68.4079 15.0404 68.5811 15.291C68.7588 15.5417 68.9798 15.7399 69.2441 15.8857C69.5085 16.027 69.8161 16.0977 70.167 16.0977C70.5133 16.0977 70.8164 16.027 71.0762 15.8857C71.3405 15.7399 71.5592 15.5417 71.7324 15.291C71.9056 15.0404 72.0355 14.7533 72.1221 14.4297C72.2132 14.1016 72.2588 13.7529 72.2588 13.3838V13.2266C72.2588 12.862 72.2132 12.5179 72.1221 12.1943C72.0355 11.8662 71.9033 11.5768 71.7256 11.3262C71.5524 11.071 71.3337 10.8704 71.0693 10.7246C70.8096 10.5788 70.5042 10.5059 70.1533 10.5059C69.807 10.5059 69.5016 10.5788 69.2373 10.7246C68.9775 10.8704 68.7588 11.071 68.5811 11.3262C68.4079 11.5768 68.278 11.8662 68.1914 12.1943C68.1048 12.5179 68.0615 12.862 68.0615 13.2266ZM76.3809 10.7656V17H75.1162V9.60352H76.3467L76.3809 10.7656ZM78.6914 9.5625L78.6846 10.7383C78.5798 10.7155 78.4795 10.7018 78.3838 10.6973C78.2926 10.6882 78.1878 10.6836 78.0693 10.6836C77.7777 10.6836 77.5202 10.7292 77.2969 10.8203C77.0736 10.9115 76.8844 11.0391 76.7295 11.2031C76.5745 11.3672 76.4515 11.5632 76.3604 11.791C76.2738 12.0143 76.2168 12.2604 76.1895 12.5293L75.834 12.7344C75.834 12.2878 75.8773 11.8685 75.9639 11.4766C76.055 11.0846 76.194 10.7383 76.3809 10.4375C76.5677 10.1322 76.8047 9.89518 77.0918 9.72656C77.3835 9.55339 77.7298 9.4668 78.1309 9.4668C78.222 9.4668 78.3268 9.47819 78.4453 9.50098C78.5638 9.51921 78.6458 9.53971 78.6914 9.5625ZM83.9482 15.7354V11.9277C83.9482 11.6361 83.889 11.3831 83.7705 11.1689C83.6566 10.9502 83.4834 10.7816 83.251 10.6631C83.0186 10.5446 82.7314 10.4854 82.3896 10.4854C82.0706 10.4854 81.7904 10.54 81.5488 10.6494C81.3118 10.7588 81.125 10.9023 80.9883 11.0801C80.8561 11.2578 80.79 11.4492 80.79 11.6543H79.5254C79.5254 11.39 79.5938 11.1279 79.7305 10.8682C79.8672 10.6084 80.0632 10.3737 80.3184 10.1641C80.5781 9.94987 80.888 9.78125 81.248 9.6582C81.6126 9.5306 82.0182 9.4668 82.4648 9.4668C83.0026 9.4668 83.4766 9.55794 83.8867 9.74023C84.3014 9.92253 84.625 10.1982 84.8574 10.5674C85.0944 10.932 85.2129 11.39 85.2129 11.9414V15.3867C85.2129 15.6328 85.2334 15.8949 85.2744 16.1729C85.32 16.4508 85.3861 16.6901 85.4727 16.8906V17H84.1533C84.0895 16.8542 84.0394 16.6605 84.0029 16.4189C83.9665 16.1729 83.9482 15.945 83.9482 15.7354ZM84.167 12.5156L84.1807 13.4043H82.9023C82.5423 13.4043 82.221 13.4339 81.9385 13.4932C81.6559 13.5479 81.4189 13.6322 81.2275 13.7461C81.0361 13.86 80.8903 14.0036 80.79 14.1768C80.6898 14.3454 80.6396 14.5436 80.6396 14.7715C80.6396 15.0039 80.6921 15.2158 80.7969 15.4072C80.9017 15.5986 81.0589 15.7513 81.2686 15.8652C81.4827 15.9746 81.7448 16.0293 82.0547 16.0293C82.4421 16.0293 82.7839 15.9473 83.0801 15.7832C83.3763 15.6191 83.611 15.4186 83.7842 15.1816C83.9619 14.9447 84.0576 14.7145 84.0713 14.4912L84.6113 15.0996C84.5794 15.291 84.4928 15.5029 84.3516 15.7354C84.2103 15.9678 84.0212 16.1911 83.7842 16.4053C83.5518 16.6149 83.2738 16.7904 82.9502 16.9316C82.6312 17.0684 82.2712 17.1367 81.8701 17.1367C81.3688 17.1367 80.929 17.0387 80.5508 16.8428C80.1771 16.6468 79.8854 16.3848 79.6758 16.0566C79.4707 15.724 79.3682 15.3525 79.3682 14.9424C79.3682 14.5459 79.4456 14.1973 79.6006 13.8965C79.7555 13.5911 79.9788 13.3382 80.2705 13.1377C80.5622 12.9326 80.9131 12.7777 81.3232 12.6729C81.7334 12.568 82.1914 12.5156 82.6973 12.5156H84.167ZM88.4668 10.7656V17H87.2021V9.60352H88.4326L88.4668 10.7656ZM90.7773 9.5625L90.7705 10.7383C90.6657 10.7155 90.5654 10.7018 90.4697 10.6973C90.3786 10.6882 90.2738 10.6836 90.1553 10.6836C89.8636 10.6836 89.6061 10.7292 89.3828 10.8203C89.1595 10.9115 88.9704 11.0391 88.8154 11.2031C88.6605 11.3672 88.5374 11.5632 88.4463 11.791C88.3597 12.0143 88.3027 12.2604 88.2754 12.5293L87.9199 12.7344C87.9199 12.2878 87.9632 11.8685 88.0498 11.4766C88.141 11.0846 88.2799 10.7383 88.4668 10.4375C88.6536 10.1322 88.8906 9.89518 89.1777 9.72656C89.4694 9.55339 89.8158 9.4668 90.2168 9.4668C90.3079 9.4668 90.4128 9.47819 90.5312 9.50098C90.6497 9.51921 90.7318 9.53971 90.7773 9.5625Z" fill="black"/>
</svg>
