<svg width="96" height="24" viewBox="0 0 96 24" fill="none" xmlns="http://www.w3.org/2000/svg">
<path d="M12 15C15.866 15 19 11.866 19 8C19 4.13401 15.866 1 12 1C8.13401 1 5 4.13401 5 8C5 11.866 8.13401 15 12 15Z" stroke="black" stroke-linecap="round" stroke-linejoin="round"/>
<path d="M8.21 13.89L7 23L12 20L17 23L15.79 13.88" stroke="black" stroke-linecap="round" stroke-linejoin="round"/>
<path d="M47.4785 15.9268V17H42.208V15.9268H47.4785ZM42.4746 7.04688V17H41.1553V7.04688H42.4746ZM46.7812 11.3262V12.3994H42.208V11.3262H46.7812ZM47.4102 7.04688V8.12695H42.208V7.04688H47.4102ZM53.2275 15.0381C53.2275 14.8558 53.1865 14.6872 53.1045 14.5322C53.027 14.3727 52.8652 14.2292 52.6191 14.1016C52.3776 13.9694 52.013 13.8555 51.5254 13.7598C51.1152 13.6732 50.7438 13.5706 50.4111 13.4521C50.083 13.3337 49.8027 13.1901 49.5703 13.0215C49.3424 12.8529 49.167 12.6546 49.0439 12.4268C48.9209 12.1989 48.8594 11.9323 48.8594 11.627C48.8594 11.3353 48.9232 11.0596 49.0508 10.7998C49.1829 10.54 49.3675 10.3099 49.6045 10.1094C49.846 9.90885 50.1354 9.75163 50.4727 9.6377C50.8099 9.52376 51.1859 9.4668 51.6006 9.4668C52.193 9.4668 52.6989 9.57161 53.1182 9.78125C53.5374 9.99089 53.8587 10.2712 54.082 10.6221C54.3053 10.9684 54.417 11.3535 54.417 11.7773H53.1523C53.1523 11.5723 53.0908 11.374 52.9678 11.1826C52.8493 10.9867 52.6738 10.8249 52.4414 10.6973C52.2135 10.5697 51.9333 10.5059 51.6006 10.5059C51.2497 10.5059 50.9648 10.5605 50.7461 10.6699C50.5319 10.7747 50.3747 10.9092 50.2744 11.0732C50.1787 11.2373 50.1309 11.4105 50.1309 11.5928C50.1309 11.7295 50.1536 11.8525 50.1992 11.9619C50.2493 12.0667 50.3359 12.1647 50.459 12.2559C50.582 12.3424 50.7552 12.4245 50.9785 12.502C51.2018 12.5794 51.4867 12.6569 51.833 12.7344C52.4391 12.8711 52.9382 13.0352 53.3301 13.2266C53.722 13.418 54.0137 13.6527 54.2051 13.9307C54.3965 14.2087 54.4922 14.5459 54.4922 14.9424C54.4922 15.266 54.4238 15.5622 54.2871 15.8311C54.1549 16.0999 53.9613 16.3324 53.7061 16.5283C53.4554 16.7197 53.1546 16.8701 52.8037 16.9795C52.4574 17.0843 52.0677 17.1367 51.6348 17.1367C50.9831 17.1367 50.4316 17.0205 49.9805 16.7881C49.5293 16.5557 49.1875 16.2549 48.9551 15.8857C48.7227 15.5166 48.6064 15.127 48.6064 14.7168H49.8779C49.8962 15.0632 49.9964 15.3389 50.1787 15.5439C50.361 15.7445 50.5843 15.888 50.8486 15.9746C51.113 16.0566 51.375 16.0977 51.6348 16.0977C51.9811 16.0977 52.2705 16.0521 52.5029 15.9609C52.7399 15.8698 52.9199 15.7445 53.043 15.585C53.166 15.4255 53.2275 15.2432 53.2275 15.0381ZM57.418 11.0254V19.8438H56.1465V9.60352H57.3086L57.418 11.0254ZM62.4014 13.2402V13.3838C62.4014 13.9215 62.3376 14.4206 62.21 14.8809C62.0824 15.3366 61.8955 15.7331 61.6494 16.0703C61.4079 16.4076 61.1094 16.6696 60.7539 16.8564C60.3984 17.0433 59.9906 17.1367 59.5303 17.1367C59.0609 17.1367 58.6462 17.0592 58.2861 16.9043C57.9261 16.7493 57.6208 16.5238 57.3701 16.2275C57.1195 15.9313 56.9189 15.5758 56.7686 15.1611C56.6227 14.7464 56.5225 14.2793 56.4678 13.7598V12.9941C56.5225 12.4473 56.625 11.9574 56.7754 11.5244C56.9258 11.0915 57.124 10.7223 57.3701 10.417C57.6208 10.1071 57.9238 9.8724 58.2793 9.71289C58.6348 9.54883 59.0449 9.4668 59.5098 9.4668C59.9746 9.4668 60.387 9.55794 60.7471 9.74023C61.1071 9.91797 61.4102 10.1732 61.6562 10.5059C61.9023 10.8385 62.0869 11.2373 62.21 11.7021C62.3376 12.1624 62.4014 12.6751 62.4014 13.2402ZM61.1299 13.3838V13.2402C61.1299 12.8711 61.0911 12.5247 61.0137 12.2012C60.9362 11.873 60.8154 11.5859 60.6514 11.3398C60.4919 11.0892 60.2868 10.8932 60.0361 10.752C59.7855 10.6061 59.487 10.5332 59.1406 10.5332C58.8216 10.5332 58.5436 10.5879 58.3066 10.6973C58.0742 10.8066 57.876 10.9548 57.7119 11.1416C57.5479 11.3239 57.4134 11.5335 57.3086 11.7705C57.2083 12.0029 57.1331 12.2445 57.083 12.4951V14.2656C57.1742 14.5846 57.3018 14.8854 57.4658 15.168C57.6299 15.446 57.8486 15.6715 58.1221 15.8447C58.3955 16.0133 58.7396 16.0977 59.1543 16.0977C59.4961 16.0977 59.79 16.027 60.0361 15.8857C60.2868 15.7399 60.4919 15.5417 60.6514 15.291C60.8154 15.0404 60.9362 14.7533 61.0137 14.4297C61.0911 14.1016 61.1299 13.7529 61.1299 13.3838ZM63.6797 13.3838V13.2266C63.6797 12.6934 63.7572 12.1989 63.9121 11.7432C64.0671 11.2829 64.2904 10.8841 64.582 10.5469C64.8737 10.2051 65.2269 9.94076 65.6416 9.75391C66.0563 9.5625 66.5212 9.4668 67.0361 9.4668C67.5557 9.4668 68.0228 9.5625 68.4375 9.75391C68.8568 9.94076 69.2122 10.2051 69.5039 10.5469C69.8001 10.8841 70.0257 11.2829 70.1807 11.7432C70.3356 12.1989 70.4131 12.6934 70.4131 13.2266V13.3838C70.4131 13.917 70.3356 14.4115 70.1807 14.8672C70.0257 15.3229 69.8001 15.7217 69.5039 16.0635C69.2122 16.4007 68.859 16.665 68.4443 16.8564C68.0342 17.0433 67.5693 17.1367 67.0498 17.1367C66.5303 17.1367 66.0632 17.0433 65.6484 16.8564C65.2337 16.665 64.8783 16.4007 64.582 16.0635C64.2904 15.7217 64.0671 15.3229 63.9121 14.8672C63.7572 14.4115 63.6797 13.917 63.6797 13.3838ZM64.9443 13.2266V13.3838C64.9443 13.7529 64.9876 14.1016 65.0742 14.4297C65.1608 14.7533 65.2907 15.0404 65.4639 15.291C65.6416 15.5417 65.8626 15.7399 66.127 15.8857C66.3913 16.027 66.6989 16.0977 67.0498 16.0977C67.3962 16.0977 67.6992 16.027 67.959 15.8857C68.2233 15.7399 68.4421 15.5417 68.6152 15.291C68.7884 15.0404 68.9183 14.7533 69.0049 14.4297C69.096 14.1016 69.1416 13.7529 69.1416 13.3838V13.2266C69.1416 12.862 69.096 12.5179 69.0049 12.1943C68.9183 11.8662 68.7861 11.5768 68.6084 11.3262C68.4352 11.071 68.2165 10.8704 67.9521 10.7246C67.6924 10.5788 67.387 10.5059 67.0361 10.5059C66.6898 10.5059 66.3844 10.5788 66.1201 10.7246C65.8604 10.8704 65.6416 11.071 65.4639 11.3262C65.2907 11.5768 65.1608 11.8662 65.0742 12.1943C64.9876 12.5179 64.9443 12.862 64.9443 13.2266ZM73.2637 10.7656V17H71.999V9.60352H73.2295L73.2637 10.7656ZM75.5742 9.5625L75.5674 10.7383C75.4626 10.7155 75.3623 10.7018 75.2666 10.6973C75.1755 10.6882 75.0706 10.6836 74.9521 10.6836C74.6605 10.6836 74.403 10.7292 74.1797 10.8203C73.9564 10.9115 73.7673 11.0391 73.6123 11.2031C73.4574 11.3672 73.3343 11.5632 73.2432 11.791C73.1566 12.0143 73.0996 12.2604 73.0723 12.5293L72.7168 12.7344C72.7168 12.2878 72.7601 11.8685 72.8467 11.4766C72.9378 11.0846 73.0768 10.7383 73.2637 10.4375C73.4505 10.1322 73.6875 9.89518 73.9746 9.72656C74.2663 9.55339 74.6126 9.4668 75.0137 9.4668C75.1048 9.4668 75.2096 9.47819 75.3281 9.50098C75.4466 9.51921 75.5286 9.53971 75.5742 9.5625ZM80.1816 9.60352V10.5742H76.1826V9.60352H80.1816ZM77.5361 7.80566H78.8008V15.168C78.8008 15.4186 78.8395 15.6077 78.917 15.7354C78.9945 15.863 79.0947 15.9473 79.2178 15.9883C79.3408 16.0293 79.473 16.0498 79.6143 16.0498C79.7191 16.0498 79.8285 16.0407 79.9424 16.0225C80.0609 15.9997 80.1497 15.9814 80.209 15.9678L80.2158 17C80.1156 17.0319 79.9834 17.0615 79.8193 17.0889C79.6598 17.1208 79.4661 17.1367 79.2383 17.1367C78.9284 17.1367 78.6436 17.0752 78.3838 16.9521C78.124 16.8291 77.9167 16.624 77.7617 16.3369C77.6113 16.0452 77.5361 15.6533 77.5361 15.1611V7.80566ZM84.7344 17.1367C84.2194 17.1367 83.7523 17.0501 83.333 16.877C82.9183 16.6992 82.5605 16.4508 82.2598 16.1318C81.9635 15.8128 81.7357 15.4346 81.5762 14.9971C81.4167 14.5596 81.3369 14.0811 81.3369 13.5615V13.2744C81.3369 12.6729 81.4258 12.1374 81.6035 11.668C81.7812 11.194 82.0228 10.793 82.3281 10.4648C82.6335 10.1367 82.9798 9.88835 83.3672 9.71973C83.7546 9.55111 84.1556 9.4668 84.5703 9.4668C85.099 9.4668 85.5547 9.55794 85.9375 9.74023C86.3249 9.92253 86.6416 10.1777 86.8877 10.5059C87.1338 10.8294 87.3161 11.2122 87.4346 11.6543C87.5531 12.0918 87.6123 12.5703 87.6123 13.0898V13.6572H82.0889V12.625H86.3477V12.5293C86.3294 12.2012 86.2611 11.8822 86.1426 11.5723C86.0286 11.2624 85.8464 11.0072 85.5957 10.8066C85.3451 10.6061 85.0033 10.5059 84.5703 10.5059C84.2832 10.5059 84.0189 10.5674 83.7773 10.6904C83.5358 10.8089 83.3285 10.9867 83.1553 11.2236C82.9821 11.4606 82.8477 11.75 82.752 12.0918C82.6562 12.4336 82.6084 12.8278 82.6084 13.2744V13.5615C82.6084 13.9124 82.6562 14.2428 82.752 14.5527C82.8522 14.8581 82.9958 15.127 83.1826 15.3594C83.374 15.5918 83.6042 15.7741 83.873 15.9062C84.1465 16.0384 84.4564 16.1045 84.8027 16.1045C85.2493 16.1045 85.6276 16.0133 85.9375 15.8311C86.2474 15.6488 86.5186 15.4049 86.751 15.0996L87.5166 15.708C87.3571 15.9495 87.1543 16.1797 86.9082 16.3984C86.6621 16.6172 86.359 16.7949 85.999 16.9316C85.6436 17.0684 85.222 17.1367 84.7344 17.1367ZM93.3955 15.0381C93.3955 14.8558 93.3545 14.6872 93.2725 14.5322C93.195 14.3727 93.0332 14.2292 92.7871 14.1016C92.5456 13.9694 92.181 13.8555 91.6934 13.7598C91.2832 13.6732 90.9118 13.5706 90.5791 13.4521C90.251 13.3337 89.9707 13.1901 89.7383 13.0215C89.5104 12.8529 89.335 12.6546 89.2119 12.4268C89.0889 12.1989 89.0273 11.9323 89.0273 11.627C89.0273 11.3353 89.0911 11.0596 89.2188 10.7998C89.3509 10.54 89.5355 10.3099 89.7725 10.1094C90.014 9.90885 90.3034 9.75163 90.6406 9.6377C90.9779 9.52376 91.3538 9.4668 91.7686 9.4668C92.361 9.4668 92.8669 9.57161 93.2861 9.78125C93.7054 9.99089 94.0267 10.2712 94.25 10.6221C94.4733 10.9684 94.585 11.3535 94.585 11.7773H93.3203C93.3203 11.5723 93.2588 11.374 93.1357 11.1826C93.0173 10.9867 92.8418 10.8249 92.6094 10.6973C92.3815 10.5697 92.1012 10.5059 91.7686 10.5059C91.4176 10.5059 91.1328 10.5605 90.9141 10.6699C90.6999 10.7747 90.5426 10.9092 90.4424 11.0732C90.3467 11.2373 90.2988 11.4105 90.2988 11.5928C90.2988 11.7295 90.3216 11.8525 90.3672 11.9619C90.4173 12.0667 90.5039 12.1647 90.627 12.2559C90.75 12.3424 90.9232 12.4245 91.1465 12.502C91.3698 12.5794 91.6546 12.6569 92.001 12.7344C92.6071 12.8711 93.1061 13.0352 93.498 13.2266C93.89 13.418 94.1816 13.6527 94.373 13.9307C94.5645 14.2087 94.6602 14.5459 94.6602 14.9424C94.6602 15.266 94.5918 15.5622 94.4551 15.8311C94.3229 16.0999 94.1292 16.3324 93.874 16.5283C93.6234 16.7197 93.3226 16.8701 92.9717 16.9795C92.6253 17.0843 92.2357 17.1367 91.8027 17.1367C91.151 17.1367 90.5996 17.0205 90.1484 16.7881C89.6973 16.5557 89.3555 16.2549 89.123 15.8857C88.8906 15.5166 88.7744 15.127 88.7744 14.7168H90.0459C90.0641 15.0632 90.1644 15.3389 90.3467 15.5439C90.529 15.7445 90.7523 15.888 91.0166 15.9746C91.2809 16.0566 91.543 16.0977 91.8027 16.0977C92.1491 16.0977 92.4385 16.0521 92.6709 15.9609C92.9079 15.8698 93.0879 15.7445 93.2109 15.585C93.334 15.4255 93.3955 15.2432 93.3955 15.0381Z" fill="black"/>
</svg>
