<svg width="97" height="24" viewBox="0 0 97 24" fill="none" xmlns="http://www.w3.org/2000/svg">
<path d="M4 19.5C4 18.837 4.26339 18.2011 4.73223 17.7322C5.20107 17.2634 5.83696 17 6.5 17H20" stroke="black" stroke-linecap="round" stroke-linejoin="round"/>
<path d="M6.5 2H20V22H6.5C5.83696 22 5.20107 21.7366 4.73223 21.2678C4.26339 20.7989 4 20.163 4 19.5V4.5C4 3.83696 4.26339 3.20107 4.73223 2.73223C5.20107 2.26339 5.83696 2 6.5 2V2Z" stroke="black" stroke-linecap="round" stroke-linejoin="round"/>
<path d="M44.8398 7.92871L41.5449 17H40.1982L43.9922 7.04688H44.8604L44.8398 7.92871ZM47.6016 17L44.2998 7.92871L44.2793 7.04688H45.1475L48.9551 17H47.6016ZM47.4307 13.3154V14.3955H41.8389V13.3154H47.4307ZM51.3613 11.0254V19.8438H50.0898V9.60352H51.252L51.3613 11.0254ZM56.3447 13.2402V13.3838C56.3447 13.9215 56.2809 14.4206 56.1533 14.8809C56.0257 15.3366 55.8389 15.7331 55.5928 16.0703C55.3512 16.4076 55.0527 16.6696 54.6973 16.8564C54.3418 17.0433 53.9339 17.1367 53.4736 17.1367C53.0042 17.1367 52.5895 17.0592 52.2295 16.9043C51.8695 16.7493 51.5641 16.5238 51.3135 16.2275C51.0628 15.9313 50.8623 15.5758 50.7119 15.1611C50.5661 14.7464 50.4658 14.2793 50.4111 13.7598V12.9941C50.4658 12.4473 50.5684 11.9574 50.7188 11.5244C50.8691 11.0915 51.0674 10.7223 51.3135 10.417C51.5641 10.1071 51.8672 9.8724 52.2227 9.71289C52.5781 9.54883 52.9883 9.4668 53.4531 9.4668C53.918 9.4668 54.3304 9.55794 54.6904 9.74023C55.0505 9.91797 55.3535 10.1732 55.5996 10.5059C55.8457 10.8385 56.0303 11.2373 56.1533 11.7021C56.2809 12.1624 56.3447 12.6751 56.3447 13.2402ZM55.0732 13.3838V13.2402C55.0732 12.8711 55.0345 12.5247 54.957 12.2012C54.8796 11.873 54.7588 11.5859 54.5947 11.3398C54.4352 11.0892 54.2301 10.8932 53.9795 10.752C53.7288 10.6061 53.4303 10.5332 53.084 10.5332C52.765 10.5332 52.487 10.5879 52.25 10.6973C52.0176 10.8066 51.8193 10.9548 51.6553 11.1416C51.4912 11.3239 51.3568 11.5335 51.252 11.7705C51.1517 12.0029 51.0765 12.2445 51.0264 12.4951V14.2656C51.1175 14.5846 51.2451 14.8854 51.4092 15.168C51.5732 15.446 51.792 15.6715 52.0654 15.8447C52.3389 16.0133 52.6829 16.0977 53.0977 16.0977C53.4395 16.0977 53.7334 16.027 53.9795 15.8857C54.2301 15.7399 54.4352 15.5417 54.5947 15.291C54.7588 15.0404 54.8796 14.7533 54.957 14.4297C55.0345 14.1016 55.0732 13.7529 55.0732 13.3838ZM59.2227 10.7656V17H57.958V9.60352H59.1885L59.2227 10.7656ZM61.5332 9.5625L61.5264 10.7383C61.4215 10.7155 61.3213 10.7018 61.2256 10.6973C61.1344 10.6882 61.0296 10.6836 60.9111 10.6836C60.6195 10.6836 60.362 10.7292 60.1387 10.8203C59.9154 10.9115 59.7262 11.0391 59.5713 11.2031C59.4163 11.3672 59.2933 11.5632 59.2021 11.791C59.1156 12.0143 59.0586 12.2604 59.0312 12.5293L58.6758 12.7344C58.6758 12.2878 58.7191 11.8685 58.8057 11.4766C58.8968 11.0846 59.0358 10.7383 59.2227 10.4375C59.4095 10.1322 59.6465 9.89518 59.9336 9.72656C60.2253 9.55339 60.5716 9.4668 60.9727 9.4668C61.0638 9.4668 61.1686 9.47819 61.2871 9.50098C61.4056 9.51921 61.4876 9.53971 61.5332 9.5625ZM65.6348 17.1367C65.1198 17.1367 64.6527 17.0501 64.2334 16.877C63.8187 16.6992 63.4609 16.4508 63.1602 16.1318C62.8639 15.8128 62.6361 15.4346 62.4766 14.9971C62.3171 14.5596 62.2373 14.0811 62.2373 13.5615V13.2744C62.2373 12.6729 62.3262 12.1374 62.5039 11.668C62.6816 11.194 62.9232 10.793 63.2285 10.4648C63.5339 10.1367 63.8802 9.88835 64.2676 9.71973C64.6549 9.55111 65.056 9.4668 65.4707 9.4668C65.9993 9.4668 66.4551 9.55794 66.8379 9.74023C67.2253 9.92253 67.542 10.1777 67.7881 10.5059C68.0342 10.8294 68.2165 11.2122 68.335 11.6543C68.4535 12.0918 68.5127 12.5703 68.5127 13.0898V13.6572H62.9893V12.625H67.248V12.5293C67.2298 12.2012 67.1615 11.8822 67.043 11.5723C66.929 11.2624 66.7467 11.0072 66.4961 10.8066C66.2454 10.6061 65.9036 10.5059 65.4707 10.5059C65.1836 10.5059 64.9193 10.5674 64.6777 10.6904C64.4362 10.8089 64.2288 10.9867 64.0557 11.2236C63.8825 11.4606 63.748 11.75 63.6523 12.0918C63.5566 12.4336 63.5088 12.8278 63.5088 13.2744V13.5615C63.5088 13.9124 63.5566 14.2428 63.6523 14.5527C63.7526 14.8581 63.8962 15.127 64.083 15.3594C64.2744 15.5918 64.5046 15.7741 64.7734 15.9062C65.0469 16.0384 65.3568 16.1045 65.7031 16.1045C66.1497 16.1045 66.528 16.0133 66.8379 15.8311C67.1478 15.6488 67.4189 15.4049 67.6514 15.0996L68.417 15.708C68.2575 15.9495 68.0547 16.1797 67.8086 16.3984C67.5625 16.6172 67.2594 16.7949 66.8994 16.9316C66.5439 17.0684 66.1224 17.1367 65.6348 17.1367ZM71.2539 11.1826V17H69.9893V9.60352H71.1855L71.2539 11.1826ZM70.9531 13.0215L70.4268 13.001C70.4313 12.4951 70.5065 12.028 70.6523 11.5996C70.7982 11.1667 71.0033 10.7907 71.2676 10.4717C71.5319 10.1527 71.8464 9.90658 72.2109 9.7334C72.5801 9.55566 72.988 9.4668 73.4346 9.4668C73.7992 9.4668 74.1273 9.51693 74.4189 9.61719C74.7106 9.71289 74.959 9.86784 75.1641 10.082C75.3737 10.2962 75.5332 10.5742 75.6426 10.916C75.752 11.2533 75.8066 11.6657 75.8066 12.1533V17H74.5352V12.1396C74.5352 11.7523 74.4782 11.4424 74.3643 11.21C74.2503 10.973 74.084 10.8021 73.8652 10.6973C73.6465 10.5879 73.3776 10.5332 73.0586 10.5332C72.7441 10.5332 72.457 10.5993 72.1973 10.7314C71.9421 10.8636 71.721 11.0459 71.5342 11.2783C71.3519 11.5107 71.2083 11.7773 71.1035 12.0781C71.0033 12.3743 70.9531 12.6888 70.9531 13.0215ZM82.3896 15.5645V6.5H83.6611V17H82.499L82.3896 15.5645ZM77.4131 13.3838V13.2402C77.4131 12.6751 77.4814 12.1624 77.6182 11.7021C77.7594 11.2373 77.9577 10.8385 78.2129 10.5059C78.4727 10.1732 78.7803 9.91797 79.1357 9.74023C79.4958 9.55794 79.8968 9.4668 80.3389 9.4668C80.8037 9.4668 81.2093 9.54883 81.5557 9.71289C81.9066 9.8724 82.2028 10.1071 82.4443 10.417C82.6904 10.7223 82.8841 11.0915 83.0254 11.5244C83.1667 11.9574 83.2646 12.4473 83.3193 12.9941V13.623C83.2692 14.1654 83.1712 14.653 83.0254 15.0859C82.8841 15.5189 82.6904 15.888 82.4443 16.1934C82.2028 16.4987 81.9066 16.7334 81.5557 16.8975C81.2048 17.057 80.7946 17.1367 80.3252 17.1367C79.8923 17.1367 79.4958 17.0433 79.1357 16.8564C78.7803 16.6696 78.4727 16.4076 78.2129 16.0703C77.9577 15.7331 77.7594 15.3366 77.6182 14.8809C77.4814 14.4206 77.4131 13.9215 77.4131 13.3838ZM78.6846 13.2402V13.3838C78.6846 13.7529 78.721 14.0993 78.7939 14.4229C78.8714 14.7464 78.9899 15.0312 79.1494 15.2773C79.3089 15.5234 79.5117 15.7171 79.7578 15.8584C80.0039 15.9951 80.2979 16.0635 80.6396 16.0635C81.0589 16.0635 81.403 15.9746 81.6719 15.7969C81.9453 15.6191 82.1641 15.3844 82.3281 15.0928C82.4922 14.8011 82.6198 14.4844 82.7109 14.1426V12.4951C82.6562 12.2445 82.5765 12.0029 82.4717 11.7705C82.3714 11.5335 82.2393 11.3239 82.0752 11.1416C81.9157 10.9548 81.7174 10.8066 81.4805 10.6973C81.248 10.5879 80.9723 10.5332 80.6533 10.5332C80.307 10.5332 80.0085 10.6061 79.7578 10.752C79.5117 10.8932 79.3089 11.0892 79.1494 11.3398C78.9899 11.5859 78.8714 11.873 78.7939 12.2012C78.721 12.5247 78.6846 12.8711 78.6846 13.2402ZM88.6992 17.1367C88.1842 17.1367 87.7171 17.0501 87.2979 16.877C86.8831 16.6992 86.5254 16.4508 86.2246 16.1318C85.9284 15.8128 85.7005 15.4346 85.541 14.9971C85.3815 14.5596 85.3018 14.0811 85.3018 13.5615V13.2744C85.3018 12.6729 85.3906 12.1374 85.5684 11.668C85.7461 11.194 85.9876 10.793 86.293 10.4648C86.5983 10.1367 86.9447 9.88835 87.332 9.71973C87.7194 9.55111 88.1204 9.4668 88.5352 9.4668C89.0638 9.4668 89.5195 9.55794 89.9023 9.74023C90.2897 9.92253 90.6064 10.1777 90.8525 10.5059C91.0986 10.8294 91.2809 11.2122 91.3994 11.6543C91.5179 12.0918 91.5771 12.5703 91.5771 13.0898V13.6572H86.0537V12.625H90.3125V12.5293C90.2943 12.2012 90.2259 11.8822 90.1074 11.5723C89.9935 11.2624 89.8112 11.0072 89.5605 10.8066C89.3099 10.6061 88.9681 10.5059 88.5352 10.5059C88.248 10.5059 87.9837 10.5674 87.7422 10.6904C87.5007 10.8089 87.2933 10.9867 87.1201 11.2236C86.9469 11.4606 86.8125 11.75 86.7168 12.0918C86.6211 12.4336 86.5732 12.8278 86.5732 13.2744V13.5615C86.5732 13.9124 86.6211 14.2428 86.7168 14.5527C86.8171 14.8581 86.9606 15.127 87.1475 15.3594C87.3389 15.5918 87.569 15.7741 87.8379 15.9062C88.1113 16.0384 88.4212 16.1045 88.7676 16.1045C89.2142 16.1045 89.5924 16.0133 89.9023 15.8311C90.2122 15.6488 90.4834 15.4049 90.7158 15.0996L91.4814 15.708C91.3219 15.9495 91.1191 16.1797 90.873 16.3984C90.627 16.6172 90.3239 16.7949 89.9639 16.9316C89.6084 17.0684 89.1868 17.1367 88.6992 17.1367ZM94.3184 10.7656V17H93.0537V9.60352H94.2842L94.3184 10.7656ZM96.6289 9.5625L96.6221 10.7383C96.5173 10.7155 96.417 10.7018 96.3213 10.6973C96.2301 10.6882 96.1253 10.6836 96.0068 10.6836C95.7152 10.6836 95.4577 10.7292 95.2344 10.8203C95.0111 10.9115 94.8219 11.0391 94.667 11.2031C94.512 11.3672 94.389 11.5632 94.2979 11.791C94.2113 12.0143 94.1543 12.2604 94.127 12.5293L93.7715 12.7344C93.7715 12.2878 93.8148 11.8685 93.9014 11.4766C93.9925 11.0846 94.1315 10.7383 94.3184 10.4375C94.5052 10.1322 94.7422 9.89518 95.0293 9.72656C95.321 9.55339 95.6673 9.4668 96.0684 9.4668C96.1595 9.4668 96.2643 9.47819 96.3828 9.50098C96.5013 9.51921 96.5833 9.53971 96.6289 9.5625Z" fill="black"/>
</svg>
