<svg width="152" height="24" viewBox="0 0 152 24" fill="none" xmlns="http://www.w3.org/2000/svg">
<path d="M7 22H4C3.46957 22 2.96086 21.7893 2.58579 21.4142C2.21071 21.0391 2 20.5304 2 20V13C2 12.4696 2.21071 11.9609 2.58579 11.5858C2.96086 11.2107 3.46957 11 4 11H7M14 9V5C14 4.20435 13.6839 3.44129 13.1213 2.87868C12.5587 2.31607 11.7956 2 11 2L7 11V22H18.28C18.7623 22.0055 19.2304 21.8364 19.5979 21.524C19.9654 21.2116 20.2077 20.7769 20.28 20.3L21.66 11.3C21.7035 11.0134 21.6842 10.7207 21.6033 10.4423C21.5225 10.1638 21.3821 9.90629 21.1919 9.68751C21.0016 9.46873 20.7661 9.29393 20.5016 9.17522C20.2371 9.0565 19.9499 8.99672 19.66 9H14Z" stroke="black" stroke-linecap="round" stroke-linejoin="round"/>
<path d="M44.3682 15.4893L47.3008 7.04688H48.7295L45.0449 17H44.0264L44.3682 15.4893ZM41.627 7.04688L44.5322 15.4893L44.8945 17H43.876L40.1982 7.04688H41.627ZM51.2451 9.60352V17H49.9805V9.60352H51.2451ZM49.9395 8.52344L51.2656 6.51367H52.79L50.958 8.52344H49.9395ZM58.0127 15.5645V6.5H59.2842V17H58.1221L58.0127 15.5645ZM53.0361 13.3838V13.2402C53.0361 12.6751 53.1045 12.1624 53.2412 11.7021C53.3825 11.2373 53.5807 10.8385 53.8359 10.5059C54.0957 10.1732 54.4033 9.91797 54.7588 9.74023C55.1188 9.55794 55.5199 9.4668 55.9619 9.4668C56.4268 9.4668 56.8324 9.54883 57.1787 9.71289C57.5296 9.8724 57.8258 10.1071 58.0674 10.417C58.3135 10.7223 58.5072 11.0915 58.6484 11.5244C58.7897 11.9574 58.8877 12.4473 58.9424 12.9941V13.623C58.8923 14.1654 58.7943 14.653 58.6484 15.0859C58.5072 15.5189 58.3135 15.888 58.0674 16.1934C57.8258 16.4987 57.5296 16.7334 57.1787 16.8975C56.8278 17.057 56.4176 17.1367 55.9482 17.1367C55.5153 17.1367 55.1188 17.0433 54.7588 16.8564C54.4033 16.6696 54.0957 16.4076 53.8359 16.0703C53.5807 15.7331 53.3825 15.3366 53.2412 14.8809C53.1045 14.4206 53.0361 13.9215 53.0361 13.3838ZM54.3076 13.2402V13.3838C54.3076 13.7529 54.3441 14.0993 54.417 14.4229C54.4945 14.7464 54.613 15.0312 54.7725 15.2773C54.932 15.5234 55.1348 15.7171 55.3809 15.8584C55.627 15.9951 55.9209 16.0635 56.2627 16.0635C56.682 16.0635 57.026 15.9746 57.2949 15.7969C57.5684 15.6191 57.7871 15.3844 57.9512 15.0928C58.1152 14.8011 58.2428 14.4844 58.334 14.1426V12.4951C58.2793 12.2445 58.1995 12.0029 58.0947 11.7705C57.9945 11.5335 57.8623 11.3239 57.6982 11.1416C57.5387 10.9548 57.3405 10.8066 57.1035 10.6973C56.8711 10.5879 56.5954 10.5332 56.2764 10.5332C55.93 10.5332 55.6315 10.6061 55.3809 10.752C55.1348 10.8932 54.932 11.0892 54.7725 11.3398C54.613 11.5859 54.4945 11.873 54.417 12.2012C54.3441 12.5247 54.3076 12.8711 54.3076 13.2402ZM64.3223 17.1367C63.8073 17.1367 63.3402 17.0501 62.9209 16.877C62.5062 16.6992 62.1484 16.4508 61.8477 16.1318C61.5514 15.8128 61.3236 15.4346 61.1641 14.9971C61.0046 14.5596 60.9248 14.0811 60.9248 13.5615V13.2744C60.9248 12.6729 61.0137 12.1374 61.1914 11.668C61.3691 11.194 61.6107 10.793 61.916 10.4648C62.2214 10.1367 62.5677 9.88835 62.9551 9.71973C63.3424 9.55111 63.7435 9.4668 64.1582 9.4668C64.6868 9.4668 65.1426 9.55794 65.5254 9.74023C65.9128 9.92253 66.2295 10.1777 66.4756 10.5059C66.7217 10.8294 66.904 11.2122 67.0225 11.6543C67.141 12.0918 67.2002 12.5703 67.2002 13.0898V13.6572H61.6768V12.625H65.9355V12.5293C65.9173 12.2012 65.849 11.8822 65.7305 11.5723C65.6165 11.2624 65.4342 11.0072 65.1836 10.8066C64.9329 10.6061 64.5911 10.5059 64.1582 10.5059C63.8711 10.5059 63.6068 10.5674 63.3652 10.6904C63.1237 10.8089 62.9163 10.9867 62.7432 11.2236C62.57 11.4606 62.4355 11.75 62.3398 12.0918C62.2441 12.4336 62.1963 12.8278 62.1963 13.2744V13.5615C62.1963 13.9124 62.2441 14.2428 62.3398 14.5527C62.4401 14.8581 62.5837 15.127 62.7705 15.3594C62.9619 15.5918 63.1921 15.7741 63.4609 15.9062C63.7344 16.0384 64.0443 16.1045 64.3906 16.1045C64.8372 16.1045 65.2155 16.0133 65.5254 15.8311C65.8353 15.6488 66.1064 15.4049 66.3389 15.0996L67.1045 15.708C66.945 15.9495 66.7422 16.1797 66.4961 16.3984C66.25 16.6172 65.9469 16.7949 65.5869 16.9316C65.2314 17.0684 64.8099 17.1367 64.3223 17.1367ZM68.3418 13.3838V13.2266C68.3418 12.6934 68.4193 12.1989 68.5742 11.7432C68.7292 11.2829 68.9525 10.8841 69.2441 10.5469C69.5358 10.2051 69.889 9.94076 70.3037 9.75391C70.7184 9.5625 71.1833 9.4668 71.6982 9.4668C72.2178 9.4668 72.6849 9.5625 73.0996 9.75391C73.5189 9.94076 73.8743 10.2051 74.166 10.5469C74.4622 10.8841 74.6878 11.2829 74.8428 11.7432C74.9977 12.1989 75.0752 12.6934 75.0752 13.2266V13.3838C75.0752 13.917 74.9977 14.4115 74.8428 14.8672C74.6878 15.3229 74.4622 15.7217 74.166 16.0635C73.8743 16.4007 73.5212 16.665 73.1064 16.8564C72.6963 17.0433 72.2314 17.1367 71.7119 17.1367C71.1924 17.1367 70.7253 17.0433 70.3105 16.8564C69.8958 16.665 69.5404 16.4007 69.2441 16.0635C68.9525 15.7217 68.7292 15.3229 68.5742 14.8672C68.4193 14.4115 68.3418 13.917 68.3418 13.3838ZM69.6064 13.2266V13.3838C69.6064 13.7529 69.6497 14.1016 69.7363 14.4297C69.8229 14.7533 69.9528 15.0404 70.126 15.291C70.3037 15.5417 70.5247 15.7399 70.7891 15.8857C71.0534 16.027 71.361 16.0977 71.7119 16.0977C72.0583 16.0977 72.3613 16.027 72.6211 15.8857C72.8854 15.7399 73.1042 15.5417 73.2773 15.291C73.4505 15.0404 73.5804 14.7533 73.667 14.4297C73.7581 14.1016 73.8037 13.7529 73.8037 13.3838V13.2266C73.8037 12.862 73.7581 12.5179 73.667 12.1943C73.5804 11.8662 73.4482 11.5768 73.2705 11.3262C73.0973 11.071 72.8786 10.8704 72.6143 10.7246C72.3545 10.5788 72.0492 10.5059 71.6982 10.5059C71.3519 10.5059 71.0465 10.5788 70.7822 10.7246C70.5225 10.8704 70.3037 11.071 70.126 11.3262C69.9528 11.5768 69.8229 11.8662 69.7363 12.1943C69.6497 12.5179 69.6064 12.862 69.6064 13.2266ZM80.9678 15.0381C80.9678 14.8558 80.9268 14.6872 80.8447 14.5322C80.7673 14.3727 80.6055 14.2292 80.3594 14.1016C80.1178 13.9694 79.7533 13.8555 79.2656 13.7598C78.8555 13.6732 78.484 13.5706 78.1514 13.4521C77.8232 13.3337 77.543 13.1901 77.3105 13.0215C77.0827 12.8529 76.9072 12.6546 76.7842 12.4268C76.6611 12.1989 76.5996 11.9323 76.5996 11.627C76.5996 11.3353 76.6634 11.0596 76.791 10.7998C76.9232 10.54 77.1077 10.3099 77.3447 10.1094C77.5863 9.90885 77.8757 9.75163 78.2129 9.6377C78.5501 9.52376 78.9261 9.4668 79.3408 9.4668C79.9333 9.4668 80.4391 9.57161 80.8584 9.78125C81.2777 9.99089 81.599 10.2712 81.8223 10.6221C82.0456 10.9684 82.1572 11.3535 82.1572 11.7773H80.8926C80.8926 11.5723 80.8311 11.374 80.708 11.1826C80.5895 10.9867 80.4141 10.8249 80.1816 10.6973C79.9538 10.5697 79.6735 10.5059 79.3408 10.5059C78.9899 10.5059 78.7051 10.5605 78.4863 10.6699C78.2721 10.7747 78.1149 10.9092 78.0146 11.0732C77.9189 11.2373 77.8711 11.4105 77.8711 11.5928C77.8711 11.7295 77.8939 11.8525 77.9395 11.9619C77.9896 12.0667 78.0762 12.1647 78.1992 12.2559C78.3223 12.3424 78.4954 12.4245 78.7188 12.502C78.9421 12.5794 79.2269 12.6569 79.5732 12.7344C80.1794 12.8711 80.6784 13.0352 81.0703 13.2266C81.4622 13.418 81.7539 13.6527 81.9453 13.9307C82.1367 14.2087 82.2324 14.5459 82.2324 14.9424C82.2324 15.266 82.1641 15.5622 82.0273 15.8311C81.8952 16.0999 81.7015 16.3324 81.4463 16.5283C81.1956 16.7197 80.8949 16.8701 80.5439 16.9795C80.1976 17.0843 79.8079 17.1367 79.375 17.1367C78.7233 17.1367 78.1719 17.0205 77.7207 16.7881C77.2695 16.5557 76.9277 16.2549 76.6953 15.8857C76.4629 15.5166 76.3467 15.127 76.3467 14.7168H77.6182C77.6364 15.0632 77.7367 15.3389 77.9189 15.5439C78.1012 15.7445 78.3245 15.888 78.5889 15.9746C78.8532 16.0566 79.1152 16.0977 79.375 16.0977C79.7214 16.0977 80.0107 16.0521 80.2432 15.9609C80.4801 15.8698 80.6602 15.7445 80.7832 15.585C80.9062 15.4255 80.9678 15.2432 80.9678 15.0381ZM92.0215 19.8438V11.0254L92.1309 9.60352H93.293V19.8438H92.0215ZM87.0518 13.3838V13.2402C87.0518 12.6751 87.1178 12.1624 87.25 11.7021C87.3822 11.2373 87.5758 10.8385 87.8311 10.5059C88.0863 10.1732 88.3939 9.91797 88.7539 9.74023C89.1185 9.55794 89.5332 9.4668 89.998 9.4668C90.4629 9.4668 90.8708 9.54883 91.2217 9.71289C91.5771 9.8724 91.8779 10.1071 92.124 10.417C92.3747 10.7223 92.5729 11.0915 92.7188 11.5244C92.8646 11.9574 92.9648 12.4473 93.0195 12.9941V13.623C92.9694 14.1654 92.8714 14.653 92.7256 15.0859C92.5798 15.5189 92.3815 15.888 92.1309 16.1934C91.8848 16.4987 91.5817 16.7334 91.2217 16.8975C90.8662 17.057 90.4538 17.1367 89.9844 17.1367C89.5286 17.1367 89.1185 17.0433 88.7539 16.8564C88.3939 16.6696 88.0863 16.4076 87.8311 16.0703C87.5804 15.7331 87.3867 15.3366 87.25 14.8809C87.1178 14.4206 87.0518 13.9215 87.0518 13.3838ZM88.3232 13.2402V13.3838C88.3232 13.7529 88.362 14.1016 88.4395 14.4297C88.5169 14.7533 88.6354 15.0404 88.7949 15.291C88.959 15.5417 89.1641 15.7399 89.4102 15.8857C89.6608 16.027 89.957 16.0977 90.2988 16.0977C90.7181 16.0977 91.0667 16.0065 91.3447 15.8242C91.6273 15.6419 91.8529 15.4027 92.0215 15.1064C92.1901 14.8057 92.32 14.4844 92.4111 14.1426V12.4951C92.361 12.2445 92.2812 12.0007 92.1719 11.7637C92.0671 11.5267 91.9303 11.3148 91.7617 11.1279C91.5931 10.9365 91.388 10.7861 91.1465 10.6768C90.9095 10.5628 90.6315 10.5059 90.3125 10.5059C89.9661 10.5059 89.6676 10.5788 89.417 10.7246C89.1663 10.8704 88.959 11.071 88.7949 11.3262C88.6354 11.5768 88.5169 11.8662 88.4395 12.1943C88.362 12.5225 88.3232 12.8711 88.3232 13.2402ZM99.8486 15.291V9.60352H101.12V17H99.9102L99.8486 15.291ZM100.088 13.7324L100.614 13.7188C100.614 14.2109 100.562 14.6667 100.457 15.0859C100.357 15.5007 100.193 15.8607 99.9648 16.166C99.737 16.4714 99.4385 16.7106 99.0693 16.8838C98.7002 17.0524 98.2513 17.1367 97.7227 17.1367C97.3626 17.1367 97.0322 17.0843 96.7314 16.9795C96.4352 16.8747 96.18 16.7129 95.9658 16.4941C95.7516 16.2754 95.5853 15.9906 95.4668 15.6396C95.3529 15.2887 95.2959 14.8672 95.2959 14.375V9.60352H96.5605V14.3887C96.5605 14.7214 96.597 14.9971 96.6699 15.2158C96.7474 15.43 96.8499 15.6009 96.9775 15.7285C97.1097 15.8516 97.2555 15.9382 97.415 15.9883C97.5791 16.0384 97.7477 16.0635 97.9209 16.0635C98.4587 16.0635 98.8848 15.9609 99.1992 15.7559C99.5137 15.5462 99.7393 15.266 99.876 14.915C100.017 14.5596 100.088 14.1654 100.088 13.7324ZM106.117 17.1367C105.602 17.1367 105.135 17.0501 104.716 16.877C104.301 16.6992 103.943 16.4508 103.643 16.1318C103.346 15.8128 103.118 15.4346 102.959 14.9971C102.799 14.5596 102.72 14.0811 102.72 13.5615V13.2744C102.72 12.6729 102.809 12.1374 102.986 11.668C103.164 11.194 103.406 10.793 103.711 10.4648C104.016 10.1367 104.363 9.88835 104.75 9.71973C105.137 9.55111 105.538 9.4668 105.953 9.4668C106.482 9.4668 106.938 9.55794 107.32 9.74023C107.708 9.92253 108.024 10.1777 108.271 10.5059C108.517 10.8294 108.699 11.2122 108.817 11.6543C108.936 12.0918 108.995 12.5703 108.995 13.0898V13.6572H103.472V12.625H107.73V12.5293C107.712 12.2012 107.644 11.8822 107.525 11.5723C107.411 11.2624 107.229 11.0072 106.979 10.8066C106.728 10.6061 106.386 10.5059 105.953 10.5059C105.666 10.5059 105.402 10.5674 105.16 10.6904C104.919 10.8089 104.711 10.9867 104.538 11.2236C104.365 11.4606 104.23 11.75 104.135 12.0918C104.039 12.4336 103.991 12.8278 103.991 13.2744V13.5615C103.991 13.9124 104.039 14.2428 104.135 14.5527C104.235 14.8581 104.379 15.127 104.565 15.3594C104.757 15.5918 104.987 15.7741 105.256 15.9062C105.529 16.0384 105.839 16.1045 106.186 16.1045C106.632 16.1045 107.01 16.0133 107.32 15.8311C107.63 15.6488 107.901 15.4049 108.134 15.0996L108.899 15.708C108.74 15.9495 108.537 16.1797 108.291 16.3984C108.045 16.6172 107.742 16.7949 107.382 16.9316C107.026 17.0684 106.605 17.1367 106.117 17.1367ZM118.736 9.60352H119.885V16.8428C119.885 17.4945 119.753 18.0505 119.488 18.5107C119.224 18.971 118.855 19.3197 118.381 19.5566C117.911 19.7982 117.369 19.9189 116.754 19.9189C116.499 19.9189 116.198 19.8779 115.852 19.7959C115.51 19.7184 115.173 19.584 114.84 19.3926C114.512 19.2057 114.236 18.9528 114.013 18.6338L114.676 17.8818C114.986 18.2555 115.309 18.5153 115.646 18.6611C115.988 18.807 116.326 18.8799 116.658 18.8799C117.059 18.8799 117.406 18.8047 117.697 18.6543C117.989 18.5039 118.215 18.2806 118.374 17.9844C118.538 17.6927 118.62 17.3327 118.62 16.9043V11.2305L118.736 9.60352ZM113.644 13.3838V13.2402C113.644 12.6751 113.71 12.1624 113.842 11.7021C113.979 11.2373 114.172 10.8385 114.423 10.5059C114.678 10.1732 114.986 9.91797 115.346 9.74023C115.706 9.55794 116.111 9.4668 116.562 9.4668C117.027 9.4668 117.433 9.54883 117.779 9.71289C118.13 9.8724 118.426 10.1071 118.668 10.417C118.914 10.7223 119.108 11.0915 119.249 11.5244C119.39 11.9574 119.488 12.4473 119.543 12.9941V13.623C119.493 14.1654 119.395 14.653 119.249 15.0859C119.108 15.5189 118.914 15.888 118.668 16.1934C118.426 16.4987 118.13 16.7334 117.779 16.8975C117.428 17.057 117.018 17.1367 116.549 17.1367C116.107 17.1367 115.706 17.0433 115.346 16.8564C114.99 16.6696 114.685 16.4076 114.43 16.0703C114.174 15.7331 113.979 15.3366 113.842 14.8809C113.71 14.4206 113.644 13.9215 113.644 13.3838ZM114.908 13.2402V13.3838C114.908 13.7529 114.945 14.0993 115.018 14.4229C115.095 14.7464 115.211 15.0312 115.366 15.2773C115.526 15.5234 115.729 15.7171 115.975 15.8584C116.221 15.9951 116.515 16.0635 116.856 16.0635C117.276 16.0635 117.622 15.9746 117.896 15.7969C118.169 15.6191 118.385 15.3844 118.545 15.0928C118.709 14.8011 118.837 14.4844 118.928 14.1426V12.4951C118.878 12.2445 118.8 12.0029 118.695 11.7705C118.595 11.5335 118.463 11.3239 118.299 11.1416C118.139 10.9548 117.941 10.8066 117.704 10.6973C117.467 10.5879 117.189 10.5332 116.87 10.5332C116.524 10.5332 116.225 10.6061 115.975 10.752C115.729 10.8932 115.526 11.0892 115.366 11.3398C115.211 11.5859 115.095 11.873 115.018 12.2012C114.945 12.5247 114.908 12.8711 114.908 13.2402ZM121.471 13.3838V13.2266C121.471 12.6934 121.548 12.1989 121.703 11.7432C121.858 11.2829 122.081 10.8841 122.373 10.5469C122.665 10.2051 123.018 9.94076 123.433 9.75391C123.847 9.5625 124.312 9.4668 124.827 9.4668C125.347 9.4668 125.814 9.5625 126.229 9.75391C126.648 9.94076 127.003 10.2051 127.295 10.5469C127.591 10.8841 127.817 11.2829 127.972 11.7432C128.127 12.1989 128.204 12.6934 128.204 13.2266V13.3838C128.204 13.917 128.127 14.4115 127.972 14.8672C127.817 15.3229 127.591 15.7217 127.295 16.0635C127.003 16.4007 126.65 16.665 126.235 16.8564C125.825 17.0433 125.36 17.1367 124.841 17.1367C124.321 17.1367 123.854 17.0433 123.439 16.8564C123.025 16.665 122.669 16.4007 122.373 16.0635C122.081 15.7217 121.858 15.3229 121.703 14.8672C121.548 14.4115 121.471 13.917 121.471 13.3838ZM122.735 13.2266V13.3838C122.735 13.7529 122.779 14.1016 122.865 14.4297C122.952 14.7533 123.082 15.0404 123.255 15.291C123.433 15.5417 123.654 15.7399 123.918 15.8857C124.182 16.027 124.49 16.0977 124.841 16.0977C125.187 16.0977 125.49 16.027 125.75 15.8857C126.014 15.7399 126.233 15.5417 126.406 15.291C126.579 15.0404 126.709 14.7533 126.796 14.4297C126.887 14.1016 126.933 13.7529 126.933 13.3838V13.2266C126.933 12.862 126.887 12.5179 126.796 12.1943C126.709 11.8662 126.577 11.5768 126.399 11.3262C126.226 11.071 126.007 10.8704 125.743 10.7246C125.483 10.5788 125.178 10.5059 124.827 10.5059C124.481 10.5059 124.175 10.5788 123.911 10.7246C123.651 10.8704 123.433 11.071 123.255 11.3262C123.082 11.5768 122.952 11.8662 122.865 12.1943C122.779 12.5179 122.735 12.862 122.735 13.2266ZM134.097 15.0381C134.097 14.8558 134.056 14.6872 133.974 14.5322C133.896 14.3727 133.734 14.2292 133.488 14.1016C133.247 13.9694 132.882 13.8555 132.395 13.7598C131.984 13.6732 131.613 13.5706 131.28 13.4521C130.952 13.3337 130.672 13.1901 130.439 13.0215C130.212 12.8529 130.036 12.6546 129.913 12.4268C129.79 12.1989 129.729 11.9323 129.729 11.627C129.729 11.3353 129.792 11.0596 129.92 10.7998C130.052 10.54 130.237 10.3099 130.474 10.1094C130.715 9.90885 131.005 9.75163 131.342 9.6377C131.679 9.52376 132.055 9.4668 132.47 9.4668C133.062 9.4668 133.568 9.57161 133.987 9.78125C134.407 9.99089 134.728 10.2712 134.951 10.6221C135.174 10.9684 135.286 11.3535 135.286 11.7773H134.021C134.021 11.5723 133.96 11.374 133.837 11.1826C133.718 10.9867 133.543 10.8249 133.311 10.6973C133.083 10.5697 132.802 10.5059 132.47 10.5059C132.119 10.5059 131.834 10.5605 131.615 10.6699C131.401 10.7747 131.244 10.9092 131.144 11.0732C131.048 11.2373 131 11.4105 131 11.5928C131 11.7295 131.023 11.8525 131.068 11.9619C131.118 12.0667 131.205 12.1647 131.328 12.2559C131.451 12.3424 131.624 12.4245 131.848 12.502C132.071 12.5794 132.356 12.6569 132.702 12.7344C133.308 12.8711 133.807 13.0352 134.199 13.2266C134.591 13.418 134.883 13.6527 135.074 13.9307C135.266 14.2087 135.361 14.5459 135.361 14.9424C135.361 15.266 135.293 15.5622 135.156 15.8311C135.024 16.0999 134.83 16.3324 134.575 16.5283C134.325 16.7197 134.024 16.8701 133.673 16.9795C133.326 17.0843 132.937 17.1367 132.504 17.1367C131.852 17.1367 131.301 17.0205 130.85 16.7881C130.398 16.5557 130.057 16.2549 129.824 15.8857C129.592 15.5166 129.476 15.127 129.476 14.7168H130.747C130.765 15.0632 130.866 15.3389 131.048 15.5439C131.23 15.7445 131.453 15.888 131.718 15.9746C131.982 16.0566 132.244 16.0977 132.504 16.0977C132.85 16.0977 133.14 16.0521 133.372 15.9609C133.609 15.8698 133.789 15.7445 133.912 15.585C134.035 15.4255 134.097 15.2432 134.097 15.0381ZM140.119 9.60352V10.5742H136.12V9.60352H140.119ZM137.474 7.80566H138.738V15.168C138.738 15.4186 138.777 15.6077 138.854 15.7354C138.932 15.863 139.032 15.9473 139.155 15.9883C139.278 16.0293 139.41 16.0498 139.552 16.0498C139.657 16.0498 139.766 16.0407 139.88 16.0225C139.998 15.9997 140.087 15.9814 140.146 15.9678L140.153 17C140.053 17.0319 139.921 17.0615 139.757 17.0889C139.597 17.1208 139.404 17.1367 139.176 17.1367C138.866 17.1367 138.581 17.0752 138.321 16.9521C138.062 16.8291 137.854 16.624 137.699 16.3369C137.549 16.0452 137.474 15.6533 137.474 15.1611V7.80566ZM144.672 17.1367C144.157 17.1367 143.69 17.0501 143.271 16.877C142.856 16.6992 142.498 16.4508 142.197 16.1318C141.901 15.8128 141.673 15.4346 141.514 14.9971C141.354 14.5596 141.274 14.0811 141.274 13.5615V13.2744C141.274 12.6729 141.363 12.1374 141.541 11.668C141.719 11.194 141.96 10.793 142.266 10.4648C142.571 10.1367 142.917 9.88835 143.305 9.71973C143.692 9.55111 144.093 9.4668 144.508 9.4668C145.036 9.4668 145.492 9.55794 145.875 9.74023C146.262 9.92253 146.579 10.1777 146.825 10.5059C147.071 10.8294 147.254 11.2122 147.372 11.6543C147.491 12.0918 147.55 12.5703 147.55 13.0898V13.6572H142.026V12.625H146.285V12.5293C146.267 12.2012 146.199 11.8822 146.08 11.5723C145.966 11.2624 145.784 11.0072 145.533 10.8066C145.283 10.6061 144.941 10.5059 144.508 10.5059C144.221 10.5059 143.956 10.5674 143.715 10.6904C143.473 10.8089 143.266 10.9867 143.093 11.2236C142.92 11.4606 142.785 11.75 142.689 12.0918C142.594 12.4336 142.546 12.8278 142.546 13.2744V13.5615C142.546 13.9124 142.594 14.2428 142.689 14.5527C142.79 14.8581 142.933 15.127 143.12 15.3594C143.312 15.5918 143.542 15.7741 143.811 15.9062C144.084 16.0384 144.394 16.1045 144.74 16.1045C145.187 16.1045 145.565 16.0133 145.875 15.8311C146.185 15.6488 146.456 15.4049 146.688 15.0996L147.454 15.708C147.295 15.9495 147.092 16.1797 146.846 16.3984C146.6 16.6172 146.297 16.7949 145.937 16.9316C145.581 17.0684 145.16 17.1367 144.672 17.1367ZM150.4 9.60352V17H149.129V9.60352H150.4ZM149.033 7.6416C149.033 7.43652 149.095 7.26335 149.218 7.12207C149.345 6.98079 149.532 6.91016 149.778 6.91016C150.02 6.91016 150.204 6.98079 150.332 7.12207C150.464 7.26335 150.53 7.43652 150.53 7.6416C150.53 7.83757 150.464 8.00618 150.332 8.14746C150.204 8.28418 150.02 8.35254 149.778 8.35254C149.532 8.35254 149.345 8.28418 149.218 8.14746C149.095 8.00618 149.033 7.83757 149.033 7.6416Z" fill="black"/>
</svg>
