<svg width="136" height="24" viewBox="0 0 136 24" fill="none" xmlns="http://www.w3.org/2000/svg">
<path d="M12 22C17.5228 22 22 17.5228 22 12C22 6.47715 17.5228 2 12 2C6.47715 2 2 6.47715 2 12C2 17.5228 6.47715 22 12 22Z" stroke="black" stroke-linecap="round" stroke-linejoin="round"/>
<path d="M12 15C13.6569 15 15 13.6569 15 12C15 10.3431 13.6569 9 12 9C10.3431 9 9 10.3431 9 12C9 13.6569 10.3431 15 12 15Z" stroke="black" stroke-linecap="round" stroke-linejoin="round"/>
<path d="M41.6133 7.04688L44.1973 12.0439L46.7881 7.04688H48.2852L44.8535 13.2812V17H43.5342V13.2812L40.1025 7.04688H41.6133ZM48.5859 13.3838V13.2266C48.5859 12.6934 48.6634 12.1989 48.8184 11.7432C48.9733 11.2829 49.1966 10.8841 49.4883 10.5469C49.7799 10.2051 50.1331 9.94076 50.5479 9.75391C50.9626 9.5625 51.4274 9.4668 51.9424 9.4668C52.4619 9.4668 52.929 9.5625 53.3438 9.75391C53.763 9.94076 54.1185 10.2051 54.4102 10.5469C54.7064 10.8841 54.932 11.2829 55.0869 11.7432C55.2419 12.1989 55.3193 12.6934 55.3193 13.2266V13.3838C55.3193 13.917 55.2419 14.4115 55.0869 14.8672C54.932 15.3229 54.7064 15.7217 54.4102 16.0635C54.1185 16.4007 53.7653 16.665 53.3506 16.8564C52.9404 17.0433 52.4756 17.1367 51.9561 17.1367C51.4365 17.1367 50.9694 17.0433 50.5547 16.8564C50.14 16.665 49.7845 16.4007 49.4883 16.0635C49.1966 15.7217 48.9733 15.3229 48.8184 14.8672C48.6634 14.4115 48.5859 13.917 48.5859 13.3838ZM49.8506 13.2266V13.3838C49.8506 13.7529 49.8939 14.1016 49.9805 14.4297C50.0671 14.7533 50.1969 15.0404 50.3701 15.291C50.5479 15.5417 50.7689 15.7399 51.0332 15.8857C51.2975 16.027 51.6051 16.0977 51.9561 16.0977C52.3024 16.0977 52.6055 16.027 52.8652 15.8857C53.1296 15.7399 53.3483 15.5417 53.5215 15.291C53.6947 15.0404 53.8245 14.7533 53.9111 14.4297C54.0023 14.1016 54.0479 13.7529 54.0479 13.3838V13.2266C54.0479 12.862 54.0023 12.5179 53.9111 12.1943C53.8245 11.8662 53.6924 11.5768 53.5146 11.3262C53.3415 11.071 53.1227 10.8704 52.8584 10.7246C52.5986 10.5788 52.2933 10.5059 51.9424 10.5059C51.596 10.5059 51.2907 10.5788 51.0264 10.7246C50.7666 10.8704 50.5479 11.071 50.3701 11.3262C50.1969 11.5768 50.0671 11.8662 49.9805 12.1943C49.8939 12.5179 49.8506 12.862 49.8506 13.2266ZM61.4307 15.291V9.60352H62.7021V17H61.4922L61.4307 15.291ZM61.6699 13.7324L62.1963 13.7188C62.1963 14.2109 62.1439 14.6667 62.0391 15.0859C61.9388 15.5007 61.7747 15.8607 61.5469 16.166C61.319 16.4714 61.0205 16.7106 60.6514 16.8838C60.2822 17.0524 59.8333 17.1367 59.3047 17.1367C58.9447 17.1367 58.6143 17.0843 58.3135 16.9795C58.0173 16.8747 57.762 16.7129 57.5479 16.4941C57.3337 16.2754 57.1673 15.9906 57.0488 15.6396C56.9349 15.2887 56.8779 14.8672 56.8779 14.375V9.60352H58.1426V14.3887C58.1426 14.7214 58.179 14.9971 58.252 15.2158C58.3294 15.43 58.432 15.6009 58.5596 15.7285C58.6917 15.8516 58.8376 15.9382 58.9971 15.9883C59.1611 16.0384 59.3298 16.0635 59.5029 16.0635C60.0407 16.0635 60.4668 15.9609 60.7812 15.7559C61.0957 15.5462 61.3213 15.266 61.458 14.915C61.5993 14.5596 61.6699 14.1654 61.6699 13.7324ZM68.499 7.04688V17H67.2002V7.04688H68.499ZM71.6982 7.04688V8.12695H64.0078V7.04688H71.6982ZM76.8525 15.291V9.60352H78.124V17H76.9141L76.8525 15.291ZM77.0918 13.7324L77.6182 13.7188C77.6182 14.2109 77.5658 14.6667 77.4609 15.0859C77.3607 15.5007 77.1966 15.8607 76.9688 16.166C76.7409 16.4714 76.4424 16.7106 76.0732 16.8838C75.7041 17.0524 75.2552 17.1367 74.7266 17.1367C74.3665 17.1367 74.0361 17.0843 73.7354 16.9795C73.4391 16.8747 73.1839 16.7129 72.9697 16.4941C72.7555 16.2754 72.5892 15.9906 72.4707 15.6396C72.3568 15.2887 72.2998 14.8672 72.2998 14.375V9.60352H73.5645V14.3887C73.5645 14.7214 73.6009 14.9971 73.6738 15.2158C73.7513 15.43 73.8538 15.6009 73.9814 15.7285C74.1136 15.8516 74.2594 15.9382 74.4189 15.9883C74.583 16.0384 74.7516 16.0635 74.9248 16.0635C75.4626 16.0635 75.8887 15.9609 76.2031 15.7559C76.5176 15.5462 76.7432 15.266 76.8799 14.915C77.0212 14.5596 77.0918 14.1654 77.0918 13.7324ZM80.0449 6.5H81.3164V15.5645L81.207 17H80.0449V6.5ZM86.3135 13.2402V13.3838C86.3135 13.9215 86.2497 14.4206 86.1221 14.8809C85.9945 15.3366 85.8076 15.7331 85.5615 16.0703C85.3154 16.4076 85.0146 16.6696 84.6592 16.8564C84.3037 17.0433 83.8958 17.1367 83.4355 17.1367C82.9661 17.1367 82.5537 17.057 82.1982 16.8975C81.8473 16.7334 81.5511 16.4987 81.3096 16.1934C81.068 15.888 80.8743 15.5189 80.7285 15.0859C80.5872 14.653 80.4893 14.1654 80.4346 13.623V12.9941C80.4893 12.4473 80.5872 11.9574 80.7285 11.5244C80.8743 11.0915 81.068 10.7223 81.3096 10.417C81.5511 10.1071 81.8473 9.8724 82.1982 9.71289C82.5492 9.54883 82.957 9.4668 83.4219 9.4668C83.8867 9.4668 84.2992 9.55794 84.6592 9.74023C85.0192 9.91797 85.32 10.1732 85.5615 10.5059C85.8076 10.8385 85.9945 11.2373 86.1221 11.7021C86.2497 12.1624 86.3135 12.6751 86.3135 13.2402ZM85.042 13.3838V13.2402C85.042 12.8711 85.0078 12.5247 84.9395 12.2012C84.8711 11.873 84.7617 11.5859 84.6113 11.3398C84.4609 11.0892 84.2627 10.8932 84.0166 10.752C83.7705 10.6061 83.4674 10.5332 83.1074 10.5332C82.7884 10.5332 82.5104 10.5879 82.2734 10.6973C82.041 10.8066 81.8428 10.9548 81.6787 11.1416C81.5146 11.3239 81.3802 11.5335 81.2754 11.7705C81.1751 12.0029 81.0999 12.2445 81.0498 12.4951V14.1426C81.1227 14.4616 81.2412 14.7692 81.4053 15.0654C81.5739 15.3571 81.7972 15.5964 82.0752 15.7832C82.3577 15.9701 82.7064 16.0635 83.1211 16.0635C83.4629 16.0635 83.7546 15.9951 83.9961 15.8584C84.2422 15.7171 84.4404 15.5234 84.5908 15.2773C84.7458 15.0312 84.8597 14.7464 84.9326 14.4229C85.0055 14.0993 85.042 13.7529 85.042 13.3838ZM90.9824 17.1367C90.4674 17.1367 90.0003 17.0501 89.5811 16.877C89.1663 16.6992 88.8086 16.4508 88.5078 16.1318C88.2116 15.8128 87.9837 15.4346 87.8242 14.9971C87.6647 14.5596 87.585 14.0811 87.585 13.5615V13.2744C87.585 12.6729 87.6738 12.1374 87.8516 11.668C88.0293 11.194 88.2708 10.793 88.5762 10.4648C88.8815 10.1367 89.2279 9.88835 89.6152 9.71973C90.0026 9.55111 90.4036 9.4668 90.8184 9.4668C91.347 9.4668 91.8027 9.55794 92.1855 9.74023C92.5729 9.92253 92.8896 10.1777 93.1357 10.5059C93.3818 10.8294 93.5641 11.2122 93.6826 11.6543C93.8011 12.0918 93.8604 12.5703 93.8604 13.0898V13.6572H88.3369V12.625H92.5957V12.5293C92.5775 12.2012 92.5091 11.8822 92.3906 11.5723C92.2767 11.2624 92.0944 11.0072 91.8438 10.8066C91.5931 10.6061 91.2513 10.5059 90.8184 10.5059C90.5312 10.5059 90.2669 10.5674 90.0254 10.6904C89.7839 10.8089 89.5765 10.9867 89.4033 11.2236C89.2301 11.4606 89.0957 11.75 89 12.0918C88.9043 12.4336 88.8564 12.8278 88.8564 13.2744V13.5615C88.8564 13.9124 88.9043 14.2428 89 14.5527C89.1003 14.8581 89.2438 15.127 89.4307 15.3594C89.6221 15.5918 89.8522 15.7741 90.1211 15.9062C90.3945 16.0384 90.7044 16.1045 91.0508 16.1045C91.4974 16.1045 91.8757 16.0133 92.1855 15.8311C92.4954 15.6488 92.7666 15.4049 92.999 15.0996L93.7646 15.708C93.6051 15.9495 93.4023 16.1797 93.1562 16.3984C92.9102 16.6172 92.6071 16.7949 92.2471 16.9316C91.8916 17.0684 91.4701 17.1367 90.9824 17.1367ZM99.418 7.04688H100.696L103.957 15.1611L107.211 7.04688H108.496L104.449 17H103.451L99.418 7.04688ZM99.001 7.04688H100.129L100.313 13.1172V17H99.001V7.04688ZM107.778 7.04688H108.906V17H107.594V13.1172L107.778 7.04688ZM115.558 15.291V9.60352H116.829V17H115.619L115.558 15.291ZM115.797 13.7324L116.323 13.7188C116.323 14.2109 116.271 14.6667 116.166 15.0859C116.066 15.5007 115.902 15.8607 115.674 16.166C115.446 16.4714 115.147 16.7106 114.778 16.8838C114.409 17.0524 113.96 17.1367 113.432 17.1367C113.072 17.1367 112.741 17.0843 112.44 16.9795C112.144 16.8747 111.889 16.7129 111.675 16.4941C111.461 16.2754 111.294 15.9906 111.176 15.6396C111.062 15.2887 111.005 14.8672 111.005 14.375V9.60352H112.27V14.3887C112.27 14.7214 112.306 14.9971 112.379 15.2158C112.456 15.43 112.559 15.6009 112.687 15.7285C112.819 15.8516 112.965 15.9382 113.124 15.9883C113.288 16.0384 113.457 16.0635 113.63 16.0635C114.168 16.0635 114.594 15.9609 114.908 15.7559C115.223 15.5462 115.448 15.266 115.585 14.915C115.726 14.5596 115.797 14.1654 115.797 13.7324ZM123.063 15.0381C123.063 14.8558 123.022 14.6872 122.94 14.5322C122.863 14.3727 122.701 14.2292 122.455 14.1016C122.214 13.9694 121.849 13.8555 121.361 13.7598C120.951 13.6732 120.58 13.5706 120.247 13.4521C119.919 13.3337 119.639 13.1901 119.406 13.0215C119.178 12.8529 119.003 12.6546 118.88 12.4268C118.757 12.1989 118.695 11.9323 118.695 11.627C118.695 11.3353 118.759 11.0596 118.887 10.7998C119.019 10.54 119.203 10.3099 119.44 10.1094C119.682 9.90885 119.971 9.75163 120.309 9.6377C120.646 9.52376 121.022 9.4668 121.437 9.4668C122.029 9.4668 122.535 9.57161 122.954 9.78125C123.373 9.99089 123.695 10.2712 123.918 10.6221C124.141 10.9684 124.253 11.3535 124.253 11.7773H122.988C122.988 11.5723 122.927 11.374 122.804 11.1826C122.685 10.9867 122.51 10.8249 122.277 10.6973C122.049 10.5697 121.769 10.5059 121.437 10.5059C121.086 10.5059 120.801 10.5605 120.582 10.6699C120.368 10.7747 120.211 10.9092 120.11 11.0732C120.015 11.2373 119.967 11.4105 119.967 11.5928C119.967 11.7295 119.99 11.8525 120.035 11.9619C120.085 12.0667 120.172 12.1647 120.295 12.2559C120.418 12.3424 120.591 12.4245 120.814 12.502C121.038 12.5794 121.323 12.6569 121.669 12.7344C122.275 12.8711 122.774 13.0352 123.166 13.2266C123.558 13.418 123.85 13.6527 124.041 13.9307C124.232 14.2087 124.328 14.5459 124.328 14.9424C124.328 15.266 124.26 15.5622 124.123 15.8311C123.991 16.0999 123.797 16.3324 123.542 16.5283C123.291 16.7197 122.991 16.8701 122.64 16.9795C122.293 17.0843 121.904 17.1367 121.471 17.1367C120.819 17.1367 120.268 17.0205 119.816 16.7881C119.365 16.5557 119.023 16.2549 118.791 15.8857C118.559 15.5166 118.442 15.127 118.442 14.7168H119.714C119.732 15.0632 119.832 15.3389 120.015 15.5439C120.197 15.7445 120.42 15.888 120.685 15.9746C120.949 16.0566 121.211 16.0977 121.471 16.0977C121.817 16.0977 122.106 16.0521 122.339 15.9609C122.576 15.8698 122.756 15.7445 122.879 15.585C123.002 15.4255 123.063 15.2432 123.063 15.0381ZM127.363 9.60352V17H126.092V9.60352H127.363ZM125.996 7.6416C125.996 7.43652 126.058 7.26335 126.181 7.12207C126.308 6.98079 126.495 6.91016 126.741 6.91016C126.983 6.91016 127.167 6.98079 127.295 7.12207C127.427 7.26335 127.493 7.43652 127.493 7.6416C127.493 7.83757 127.427 8.00618 127.295 8.14746C127.167 8.28418 126.983 8.35254 126.741 8.35254C126.495 8.35254 126.308 8.28418 126.181 8.14746C126.058 8.00618 125.996 7.83757 125.996 7.6416ZM132.354 16.0977C132.654 16.0977 132.932 16.0361 133.188 15.9131C133.443 15.79 133.652 15.6214 133.816 15.4072C133.98 15.1885 134.074 14.9401 134.097 14.6621H135.3C135.277 15.0996 135.129 15.5075 134.855 15.8857C134.587 16.2594 134.233 16.5625 133.796 16.7949C133.358 17.0228 132.878 17.1367 132.354 17.1367C131.798 17.1367 131.312 17.0387 130.897 16.8428C130.487 16.6468 130.146 16.3779 129.872 16.0361C129.603 15.6943 129.4 15.3024 129.264 14.8604C129.132 14.4137 129.065 13.9421 129.065 13.4453V13.1582C129.065 12.6615 129.132 12.1921 129.264 11.75C129.4 11.3034 129.603 10.9092 129.872 10.5674C130.146 10.2256 130.487 9.95671 130.897 9.76074C131.312 9.56478 131.798 9.4668 132.354 9.4668C132.932 9.4668 133.438 9.58529 133.871 9.82227C134.304 10.0547 134.644 10.3737 134.89 10.7793C135.14 11.1803 135.277 11.6361 135.3 12.1465H134.097C134.074 11.8411 133.987 11.5654 133.837 11.3193C133.691 11.0732 133.491 10.8773 133.235 10.7314C132.985 10.5811 132.691 10.5059 132.354 10.5059C131.966 10.5059 131.64 10.5833 131.376 10.7383C131.116 10.8887 130.909 11.0938 130.754 11.3535C130.604 11.6087 130.494 11.8936 130.426 12.208C130.362 12.5179 130.33 12.8346 130.33 13.1582V13.4453C130.33 13.7689 130.362 14.0879 130.426 14.4023C130.49 14.7168 130.597 15.0016 130.747 15.2568C130.902 15.512 131.109 15.7171 131.369 15.8721C131.633 16.0225 131.962 16.0977 132.354 16.0977Z" fill="black"/>
</svg>
