<svg width="75" height="24" viewBox="0 0 75 24" fill="none" xmlns="http://www.w3.org/2000/svg">
<path d="M3 9L12 2L21 9V20C21 20.5304 20.7893 21.0391 20.4142 21.4142C20.0391 21.7893 19.5304 22 19 22H5C4.46957 22 3.96086 21.7893 3.58579 21.4142C3.21071 21.0391 3 20.5304 3 20V9Z" stroke="black" stroke-linecap="round" stroke-linejoin="round"/>
<path d="M9 22V12H15V22" stroke="black" stroke-linecap="round" stroke-linejoin="round"/>
<path d="M43.0693 7.04688V17H41.0254V7.04688H43.0693ZM46.7949 11.1826V17H44.8262V9.60352H46.6719L46.7949 11.1826ZM46.5078 13.042H45.9746C45.9746 12.4951 46.0452 12.0029 46.1865 11.5654C46.3278 11.1234 46.526 10.7474 46.7812 10.4375C47.0365 10.123 47.3395 9.88379 47.6904 9.71973C48.0459 9.55111 48.4424 9.4668 48.8799 9.4668C49.2262 9.4668 49.543 9.51693 49.8301 9.61719C50.1172 9.71745 50.3633 9.87695 50.5684 10.0957C50.778 10.3145 50.9375 10.6038 51.0469 10.9639C51.1608 11.3239 51.2178 11.7637 51.2178 12.2832V17H49.2354V12.2764C49.2354 11.9482 49.1898 11.693 49.0986 11.5107C49.0075 11.3285 48.873 11.2008 48.6953 11.1279C48.5221 11.0505 48.3079 11.0117 48.0527 11.0117C47.7884 11.0117 47.5583 11.0641 47.3623 11.1689C47.1709 11.2738 47.0114 11.4196 46.8838 11.6064C46.7607 11.7887 46.6673 12.0029 46.6035 12.249C46.5397 12.4951 46.5078 12.7594 46.5078 13.042ZM54.8408 9.60352V17H52.8652V9.60352H54.8408ZM52.9268 8.70801L54.2666 6.60254H56.4062L54.5264 8.70801H52.9268ZM59.5986 15.5986C59.8402 15.5986 60.0544 15.5531 60.2412 15.4619C60.4281 15.3662 60.5739 15.234 60.6787 15.0654C60.7881 14.8923 60.8451 14.6895 60.8496 14.457H62.7021C62.6976 14.9766 62.5586 15.4391 62.2852 15.8447C62.0117 16.2458 61.6449 16.5625 61.1846 16.7949C60.7243 17.0228 60.2093 17.1367 59.6396 17.1367C59.0654 17.1367 58.5641 17.041 58.1357 16.8496C57.7119 16.6582 57.3587 16.3939 57.0762 16.0566C56.7936 15.7148 56.5817 15.3184 56.4404 14.8672C56.2992 14.4115 56.2285 13.9238 56.2285 13.4043V13.2061C56.2285 12.682 56.2992 12.1943 56.4404 11.7432C56.5817 11.2874 56.7936 10.891 57.0762 10.5537C57.3587 10.2119 57.7119 9.94531 58.1357 9.75391C58.5596 9.5625 59.0563 9.4668 59.626 9.4668C60.2321 9.4668 60.763 9.58301 61.2188 9.81543C61.679 10.0479 62.0391 10.3805 62.2988 10.8135C62.5632 11.2419 62.6976 11.75 62.7021 12.3379H60.8496C60.8451 12.0918 60.7926 11.8685 60.6924 11.668C60.5967 11.4674 60.4554 11.3079 60.2686 11.1895C60.0863 11.0664 59.8607 11.0049 59.5918 11.0049C59.3047 11.0049 59.07 11.0664 58.8877 11.1895C58.7054 11.3079 58.5641 11.472 58.4639 11.6816C58.3636 11.8867 58.293 12.1214 58.252 12.3857C58.2155 12.6455 58.1973 12.9189 58.1973 13.2061V13.4043C58.1973 13.6914 58.2155 13.9671 58.252 14.2314C58.2884 14.4958 58.3568 14.7305 58.457 14.9355C58.5618 15.1406 58.7054 15.3024 58.8877 15.4209C59.07 15.5394 59.307 15.5986 59.5986 15.5986ZM65.9219 9.60352V17H63.9463V9.60352H65.9219ZM63.8232 7.67578C63.8232 7.38867 63.9235 7.15169 64.124 6.96484C64.3245 6.77799 64.5934 6.68457 64.9307 6.68457C65.2633 6.68457 65.5299 6.77799 65.7305 6.96484C65.9355 7.15169 66.0381 7.38867 66.0381 7.67578C66.0381 7.96289 65.9355 8.19987 65.7305 8.38672C65.5299 8.57357 65.2633 8.66699 64.9307 8.66699C64.5934 8.66699 64.3245 8.57357 64.124 8.38672C63.9235 8.19987 63.8232 7.96289 63.8232 7.67578ZM67.2344 13.377V13.2334C67.2344 12.6911 67.3118 12.1921 67.4668 11.7363C67.6217 11.276 67.8473 10.8773 68.1436 10.54C68.4398 10.2028 68.8044 9.94076 69.2373 9.75391C69.6702 9.5625 70.167 9.4668 70.7275 9.4668C71.2881 9.4668 71.7871 9.5625 72.2246 9.75391C72.6621 9.94076 73.029 10.2028 73.3252 10.54C73.626 10.8773 73.8538 11.276 74.0088 11.7363C74.1637 12.1921 74.2412 12.6911 74.2412 13.2334V13.377C74.2412 13.9147 74.1637 14.4137 74.0088 14.874C73.8538 15.3298 73.626 15.7285 73.3252 16.0703C73.029 16.4076 72.6644 16.6696 72.2314 16.8564C71.7985 17.0433 71.3018 17.1367 70.7412 17.1367C70.1807 17.1367 69.6816 17.0433 69.2441 16.8564C68.8112 16.6696 68.4443 16.4076 68.1436 16.0703C67.8473 15.7285 67.6217 15.3298 67.4668 14.874C67.3118 14.4137 67.2344 13.9147 67.2344 13.377ZM69.2031 13.2334V13.377C69.2031 13.6868 69.2305 13.9762 69.2852 14.2451C69.3398 14.514 69.4264 14.751 69.5449 14.9561C69.668 15.1566 69.8275 15.3138 70.0234 15.4277C70.2194 15.5417 70.4587 15.5986 70.7412 15.5986C71.0146 15.5986 71.2493 15.5417 71.4453 15.4277C71.6413 15.3138 71.7985 15.1566 71.917 14.9561C72.0355 14.751 72.1221 14.514 72.1768 14.2451C72.236 13.9762 72.2656 13.6868 72.2656 13.377V13.2334C72.2656 12.9326 72.236 12.6501 72.1768 12.3857C72.1221 12.1169 72.0332 11.8799 71.9102 11.6748C71.7917 11.4652 71.6344 11.3011 71.4385 11.1826C71.2425 11.0641 71.0055 11.0049 70.7275 11.0049C70.4495 11.0049 70.2126 11.0641 70.0166 11.1826C69.8252 11.3011 69.668 11.4652 69.5449 11.6748C69.4264 11.8799 69.3398 12.1169 69.2852 12.3857C69.2305 12.6501 69.2031 12.9326 69.2031 13.2334Z" fill="black"/>
</svg>
